ISO-10303-21;
HEADER;
FILE_DESCRIPTION (( 'STEP AP214' ),
    '1' );
FILE_NAME ('°²×¿ÊÖ±Û.STEP',
    '2026-08-19T06:58:17',
    ( '' ),
    ( '' ),
    'SwSTEP 2.0',
    'SolidWorks 2025',
    '' );
FILE_SCHEMA (( 'AUTOMOTIVE_DESIGN' ));
ENDSEC;

DATA;
#1 = DIRECTION ( 'NONE',  ( 1.000000000000000000, 0.000000000000000000, 0.000000000000000000 ) ) ;
#2 = VERTEX_POINT ( 'NONE', #870 ) ;
#3 = CYLINDRICAL_SURFACE ( 'NONE', #811, 2.000000000000000000 ) ;
#4 = DIRECTION ( 'NONE',  ( 0.000000000000000000, -1.000000000000000000, -1.224646799147353207E-16 ) ) ;
#5 = EDGE_CURVE ( 'NONE', #831, #132, #259, .T. ) ;
#6 = DIRECTION ( 'NONE',  ( 0.000000000000000000, 0.000000000000000000, 1.000000000000000000 ) ) ;
#7 = ORIENTED_EDGE ( 'NONE', *, *, #622, .F. ) ;
#8 = CARTESIAN_POINT ( 'NONE',  ( 9.397191540055633396, -34.17276189558961619, -0.2633336565465759227 ) ) ;
#9 = AXIS2_PLACEMENT_3D ( 'NONE', #803, #366, #372 ) ;
#10 = AXIS2_PLACEMENT_3D ( 'NONE', #693, #857, #51 ) ;
#11 = DIRECTION ( 'NONE',  ( 0.000000000000000000, 0.000000000000000000, -1.000000000000000000 ) ) ;
#12 = CIRCLE ( 'NONE', #44, 4.249999999999995559 ) ;
#13 = ORIENTED_EDGE ( 'NONE', *, *, #19, .F. ) ;
#14 = CARTESIAN_POINT ( 'NONE',  ( 16.40196821328922638, -36.15973575610402690, 4.312509251390993725 ) ) ;
#15 = CARTESIAN_POINT ( 'NONE',  ( 12.70042190422045181, -36.15973575610402690, 9.251390994748793429E-06 ) ) ;
#16 = DIRECTION ( 'NONE',  ( -1.000000000000000000, 0.000000000000000000, -1.224647708960391480E-16 ) ) ;
#17 = ORIENTED_EDGE ( 'NONE', *, *, #124, .F. ) ;
#18 =( NAMED_UNIT ( * ) PLANE_ANGLE_UNIT ( ) SI_UNIT ( $, .RADIAN. ) );
#19 = EDGE_CURVE ( 'NONE', #553, #136, #656, .T. ) ;
#20 = APPLICATION_PROTOCOL_DEFINITION ( 'draft international standard', 'automotive_design', 1998, #24 ) ;
#21 = VERTEX_POINT ( 'NONE', #158 ) ;
#22 = DIRECTION ( 'NONE',  ( 0.000000000000000000, -1.000000000000000000, -0.000000000000000000 ) ) ;
#23 = AXIS2_PLACEMENT_3D ( 'NONE', #624, #909, #744 ) ;
#24 = APPLICATION_CONTEXT ( 'automotive_design' ) ;
#25 = DIRECTION ( 'NONE',  ( -0.000000000000000000, -1.000000000000000000, -0.000000000000000000 ) ) ;
#26 = ORIENTED_EDGE ( 'NONE', *, *, #458, .T. ) ;
#27 = VECTOR ( 'NONE', #140, 1000.000000000000000 ) ;
#28 = CIRCLE ( 'NONE', #603, 5.499999999999998224 ) ;
#29 = CYLINDRICAL_SURFACE ( 'NONE', #516, 3.062499999999999112 ) ;
#30 = AXIS2_PLACEMENT_3D ( 'NONE', #67, #297, #220 ) ;
#31 = CARTESIAN_POINT ( 'NONE',  ( 3.901968213289225496, -32.15973575610402690, 9.251390994748793429E-06 ) ) ;
#32 = EDGE_CURVE ( 'NONE', #553, #498, #707, .T. ) ;
#33 = CYLINDRICAL_SURFACE ( 'NONE', #60, 0.7500000000000000000 ) ;
#34 = ORIENTED_EDGE ( 'NONE', *, *, #458, .F. ) ;
#35 = CARTESIAN_POINT ( 'NONE',  ( 3.901968213289225496, -32.15973575610402690, 9.251390994748793429E-06 ) ) ;
#36 = CARTESIAN_POINT ( 'NONE',  ( 9.330918448206524829, -37.95577442400281853, 0.8896727548987046763 ) ) ;
#37 = EDGE_LOOP ( 'NONE', ( #927, #413, #605, #658 ) ) ;
#38 = EDGE_CURVE ( 'NONE', #799, #185, #578, .T. ) ;
#39 = FACE_OUTER_BOUND ( 'NONE', #257, .T. ) ;
#40 = AXIS2_PLACEMENT_3D ( 'NONE', #326, #907, #187 ) ;
#41 = CARTESIAN_POINT ( 'NONE',  ( 9.310334868153619325, -37.89326742109590640, 1.005810745585405952 ) ) ;
#42 = VERTEX_POINT ( 'NONE', #364 ) ;
#43 = CARTESIAN_POINT ( 'NONE',  ( 3.901968213289225496, -32.15973575610402690, 5.500009251390991949 ) ) ;
#44 = AXIS2_PLACEMENT_3D ( 'NONE', #266, #118, #816 ) ;
#45 = AXIS2_PLACEMENT_3D ( 'NONE', #869, #935, #696 ) ;
#46 = CARTESIAN_POINT ( 'NONE',  ( 9.025443596269024482, -36.15973575610402690, -1.999990748609005164 ) ) ;
#47 = AXIS2_PLACEMENT_3D ( 'NONE', #230, #302, #875 ) ;
#48 = LINE ( 'NONE', #684, #758 ) ;
#49 = ORIENTED_EDGE ( 'NONE', *, *, #32, .F. ) ;
#50 = EDGE_CURVE ( 'NONE', #42, #831, #778, .T. ) ;
#51 = DIRECTION ( 'NONE',  ( 0.000000000000000000, 0.000000000000000000, 1.000000000000000000 ) ) ;
#52 = DIRECTION ( 'NONE',  ( 0.000000000000000000, 0.000000000000000000, 1.000000000000000000 ) ) ;
#53 = ORIENTED_EDGE ( 'NONE', *, *, #87, .F. ) ;
#54 = CARTESIAN_POINT ( 'NONE',  ( 8.085268345959603309, -36.06185570637635607, 0.7500092513909949465 ) ) ;
#55 = PRODUCT_DEFINITION_CONTEXT ( 'detailed design', #714, 'design' ) ;
#56 = AXIS2_PLACEMENT_3D ( 'NONE', #35, #333, #120 ) ;
#57 = CARTESIAN_POINT ( 'NONE',  ( 3.901968213289226384, -32.15973575610402690, -5.499990748609005387 ) ) ;
#58 = FACE_OUTER_BOUND ( 'NONE', #119, .T. ) ;
#59 = VECTOR ( 'NONE', #88, 1000.000000000000000 ) ;
#60 = AXIS2_PLACEMENT_3D ( 'NONE', #324, #896, #252 ) ;
#61 = CARTESIAN_POINT ( 'NONE',  ( 9.957191644370467998, -36.15973575610402690, 0.7500092524494169632 ) ) ;
#62 = AXIS2_PLACEMENT_3D ( 'NONE', #466, #114, #152 ) ;
#63 = EDGE_CURVE ( 'NONE', #545, #397, #840, .T. ) ;
#64 = FACE_OUTER_BOUND ( 'NONE', #582, .T. ) ;
#65 = EDGE_LOOP ( 'NONE', ( #461, #277, #486, #262, #764 ) ) ;
#66 = STYLED_ITEM ( 'NONE', ( #728 ), #265 ) ;
#67 = CARTESIAN_POINT ( 'NONE',  ( 16.40196821328922638, -36.15973575610402690, 9.251390994748793429E-06 ) ) ;
#68 = FACE_OUTER_BOUND ( 'NONE', #889, .T. ) ;
#69 = DIRECTION ( 'NONE',  ( -0.9999999991532620980, 0.000000000000000000, 4.115186118568983035E-05 ) ) ;
#70 = EDGE_CURVE ( 'NONE', #322, #136, #735, .T. ) ;
#71 = ORIENTED_EDGE ( 'NONE', *, *, #63, .T. ) ;
#72 = LINE ( 'NONE', #784, #334 ) ;
#73 = PRODUCT_DEFINITION_SHAPE ( 'NONE', 'NONE',  #501 ) ;
#74 = SPHERICAL_SURFACE ( 'NONE', #528, 25.00000000000000711 ) ;
#75 = DIRECTION ( 'NONE',  ( 1.000000000000000000, -0.000000000000000000, -0.000000000000000000 ) ) ;
#76 = ORIENTED_EDGE ( 'NONE', *, *, #250, .T. ) ;
#77 = CARTESIAN_POINT ( 'NONE',  ( 9.192305062334026999, -34.83855705277598247, 1.507109910124519336 ) ) ;
#78 = CIRCLE ( 'NONE', #628, 4.249999999999995559 ) ;
#79 =( GEOMETRIC_REPRESENTATION_CONTEXT ( 3 ) GLOBAL_UNCERTAINTY_ASSIGNED_CONTEXT ( ( #80 ) ) GLOBAL_UNIT_ASSIGNED_CONTEXT ( ( #839, #699, #736 ) ) REPRESENTATION_CONTEXT ( 'NONE', 'WORKASPACE' ) );
#80 = UNCERTAINTY_MEASURE_WITH_UNIT (LENGTH_MEASURE( 1.000000000000000082E-05 ), #839, 'distance_accuracy_value', 'NONE');
#81 = AXIS2_PLACEMENT_3D ( 'NONE', #634, #278, #207 ) ;
#82 = DIRECTION ( 'NONE',  ( 0.000000000000000000, 0.000000000000000000, -1.000000000000000000 ) ) ;
#83 = EDGE_LOOP ( 'NONE', ( #117, #280, #894, #808 ) ) ;
#84 = CARTESIAN_POINT ( 'NONE',  ( 9.265731311124337566, -34.56255181800847254, -1.231184109567166507 ) ) ;
#85 = CIRCLE ( 'NONE', #310, 0.7498680427817507876 ) ;
#86 = ADVANCED_FACE ( 'NONE', ( #167 ), #633, .T. ) ;
#87 = EDGE_CURVE ( 'NONE', #711, #185, #747, .T. ) ;
#88 = DIRECTION ( 'NONE',  ( 1.000000000000000000, 0.000000000000000000, 0.000000000000000000 ) ) ;
#89 = EDGE_LOOP ( 'NONE', ( #722, #914, #850, #515 ) ) ;
#90 = CARTESIAN_POINT ( 'NONE',  ( 3.901968213289225496, -55.65973575610402690, 9.251390994748793429E-06 ) ) ;
#91 = CARTESIAN_POINT ( 'NONE',  ( 9.100567921507165536, -35.27115428664027519, 1.796500837253031779 ) ) ;
#92 = CARTESIAN_POINT ( 'NONE',  ( 3.901968213289225496, -32.15973575610402690, 9.251390994748793429E-06 ) ) ;
#93 = ORIENTED_EDGE ( 'NONE', *, *, #181, .F. ) ;
#94 = DIRECTION ( 'NONE',  ( 0.000000000000000000, -1.000000000000000000, -0.000000000000000000 ) ) ;
#95 = CARTESIAN_POINT ( 'NONE',  ( 9.100905225559321465, -35.26911004735199384, -1.795516793500478991 ) ) ;
#96 = AXIS2_PLACEMENT_3D ( 'NONE', #787, #434, #131 ) ;
#97 = CONICAL_SURFACE ( 'NONE', #212, 0.7500000010584222387, 4.115186119730477980E-05 ) ;
#98 = AXIS2_PLACEMENT_3D ( 'NONE', #143, #201, #704 ) ;
#99 = FACE_BOUND ( 'NONE', #175, .T. ) ;
#100 = ORIENTED_EDGE ( 'NONE', *, *, #579, .T. ) ;
#101 = EDGE_CURVE ( 'NONE', #388, #312, #687, .T. ) ;
#102 = AXIS2_PLACEMENT_3D ( 'NONE', #509, #4, #303 ) ;
#103 = SURFACE_STYLE_FILL_AREA ( #173 ) ;
#104 = ORIENTED_EDGE ( 'NONE', *, *, #550, .T. ) ;
#105 = DIRECTION ( 'NONE',  ( 0.000000000000000000, 0.000000000000000000, 1.000000000000000000 ) ) ;
#106 = CARTESIAN_POINT ( 'NONE',  ( 3.901968213289225940, -32.15973575610402690, -4.249990748609005387 ) ) ;
#107 = ORIENTED_EDGE ( 'NONE', *, *, #410, .T. ) ;
#108 = FACE_OUTER_BOUND ( 'NONE', #843, .T. ) ;
#109 = AXIS2_PLACEMENT_3D ( 'NONE', #402, #611, #626 ) ;
#110 = DIRECTION ( 'NONE',  ( 0.000000000000000000, 0.000000000000000000, 1.000000000000000000 ) ) ;
#111 = ORIENTED_EDGE ( 'NONE', *, *, #50, .T. ) ;
#112 = AXIS2_PLACEMENT_3D ( 'NONE', #612, #25, #408 ) ;
#113 = VECTOR ( 'NONE', #862, 1000.000000000000000 ) ;
#114 = DIRECTION ( 'NONE',  ( -1.000000000000000000, -0.000000000000000000, -0.000000000000000000 ) ) ;
#115 = EDGE_CURVE ( 'NONE', #627, #650, #440, .T. ) ;
#116 = CARTESIAN_POINT ( 'NONE',  ( 9.100765232455708897, -37.04953610630033012, 1.795937968243009886 ) ) ;
#117 = ORIENTED_EDGE ( 'NONE', *, *, #288, .F. ) ;
#118 = DIRECTION ( 'NONE',  ( -0.000000000000000000, 1.000000000000000000, -0.000000000000000000 ) ) ;
#119 = EDGE_LOOP ( 'NONE', ( #193, #104, #264, #13 ) ) ;
#120 = DIRECTION ( 'NONE',  ( 1.000000000000000000, 0.000000000000000000, 0.000000000000000000 ) ) ;
#121 = CARTESIAN_POINT ( 'NONE',  ( 9.025443596269024482, -36.15973575610402690, 2.000009251390995058 ) ) ;
#122 = SPHERICAL_SURFACE ( 'NONE', #820, 4.249999999999995559 ) ;
#123 = AXIS2_PLACEMENT_3D ( 'NONE', #737, #399, #184 ) ;
#124 = EDGE_CURVE ( 'NONE', #627, #373, #353, .T. ) ;
#125 = ORIENTED_EDGE ( 'NONE', *, *, #395, .F. ) ;
#126 = AXIS2_PLACEMENT_3D ( 'NONE', #15, #226, #513 ) ;
#127 = CARTESIAN_POINT ( 'NONE',  ( 9.064922271729173531, -36.80807889540348299, 1.896520731173421792 ) ) ;
#128 = DIRECTION ( 'NONE',  ( -1.000000000000000000, -0.000000000000000000, -0.000000000000000000 ) ) ;
#129 = ORIENTED_EDGE ( 'NONE', *, *, #472, .F. ) ;
#130 = CARTESIAN_POINT ( 'NONE',  ( 8.110028430343611205, -35.69870291534669349, 0.5997410246098354714 ) ) ;
#131 = DIRECTION ( 'NONE',  ( 0.000000000000000000, 0.000000000000000000, -1.000000000000000000 ) ) ;
#132 = VERTEX_POINT ( 'NONE', #921 ) ;
#133 = ADVANCED_FACE ( 'NONE', ( #577 ), #437, .T. ) ;
#134 = CARTESIAN_POINT ( 'NONE',  ( 8.101379726800152170, -35.76748663863995148, -0.6684740399663606780 ) ) ;
#135 = CARTESIAN_POINT ( 'NONE',  ( 12.70042190422045181, -36.15973575610402690, -4.312490748609005387 ) ) ;
#136 = VERTEX_POINT ( 'NONE', #215 ) ;
#137 = ADVANCED_FACE ( 'NONE', ( #789 ), #378, .T. ) ;
#138 = DIRECTION ( 'NONE',  ( 1.000000000000000000, 0.000000000000000000, 0.000000000000000000 ) ) ;
#139 = VECTOR ( 'NONE', #779, 1000.000000000000000 ) ;
#140 = DIRECTION ( 'NONE',  ( 1.000000000000000000, 0.000000000000000000, 0.000000000000000000 ) ) ;
#141 = ORIENTED_EDGE ( 'NONE', *, *, #499, .F. ) ;
#142 = FACE_OUTER_BOUND ( 'NONE', #287, .T. ) ;
#143 = CARTESIAN_POINT ( 'NONE',  ( 3.901968213289225496, -32.15973575610402690, 9.251390994748793429E-06 ) ) ;
#144 = CARTESIAN_POINT ( 'NONE',  ( 13.16380910364600076, -36.15973575610402690, 9.251390994748793429E-06 ) ) ;
#145 = ORIENTED_EDGE ( 'NONE', *, *, #38, .F. ) ;
#146 = CARTESIAN_POINT ( 'NONE',  ( 16.40196821328922638, -36.15973575610402690, 3.812509251390994169 ) ) ;
#147 = CARTESIAN_POINT ( 'NONE',  ( 9.313891793908029015, -34.41393976351758965, -1.009943238371307173 ) ) ;
#148 = CYLINDRICAL_SURFACE ( 'NONE', #98, 4.249999999999999112 ) ;
#149 = DIRECTION ( 'NONE',  ( 0.000000000000000000, 0.000000000000000000, -1.000000000000000000 ) ) ;
#150 = ORIENTED_EDGE ( 'NONE', *, *, #876, .F. ) ;
#151 = CIRCLE ( 'NONE', #433, 25.00000000000000711 ) ;
#152 = DIRECTION ( 'NONE',  ( 0.000000000000000000, 0.000000000000000000, -1.000000000000000000 ) ) ;
#153 = ADVANCED_FACE ( 'NONE', ( #142, #861 ), #426, .F. ) ;
#154 = CARTESIAN_POINT ( 'NONE',  ( 9.030598561237393795, -35.89594516097575649, 1.986948499607167795 ) ) ;
#155 = CARTESIAN_POINT ( 'NONE',  ( 8.151952391979630619, -36.90964610200728657, -0.1969193672027701736 ) ) ;
#156 = ORIENTED_EDGE ( 'NONE', *, *, #124, .T. ) ;
#157 = DIRECTION ( 'NONE',  ( -1.000000000000000000, 0.000000000000000000, 0.000000000000000000 ) ) ;
#158 = CARTESIAN_POINT ( 'NONE',  ( 16.90196821328922638, -36.15973575610402690, -3.062490748609004498 ) ) ;
#159 = CARTESIAN_POINT ( 'NONE',  ( 8.136097398592374574, -36.82801780290676419, -0.3924093275951789916 ) ) ;
#160 = EDGE_LOOP ( 'NONE', ( #701, #539, #526, #240 ) ) ;
#161 = FILL_AREA_STYLE_COLOUR ( '', #348 ) ;
#162 = CARTESIAN_POINT ( 'NONE',  ( 9.030654367158408746, -35.89543231484658747, -1.986781751307741706 ) ) ;
#163 = EDGE_CURVE ( 'NONE', #518, #21, #72, .T. ) ;
#164 = SPHERICAL_SURFACE ( 'NONE', #255, 25.00000000000000711 ) ;
#165 = ORIENTED_EDGE ( 'NONE', *, *, #597, .F. ) ;
#166 = ADVANCED_BREP_SHAPE_REPRESENTATION ( '\X2\5b895353624b81c2\X0\', ( #265, #716 ), #79 ) ;
#167 = FACE_OUTER_BOUND ( 'NONE', #817, .T. ) ;
#168 = EDGE_CURVE ( 'NONE', #492, #325, #904, .T. ) ;
#169 = CARTESIAN_POINT ( 'NONE',  ( -0.3480317867107702856, -32.15973575610402690, 9.251390994228317094E-06 ) ) ;
#170 = ORIENTED_EDGE ( 'NONE', *, *, #445, .T. ) ;
#171 = EDGE_CURVE ( 'NONE', #312, #430, #529, .T. ) ;
#172 = VECTOR ( 'NONE', #847, 1000.000000000000114 ) ;
#173 = FILL_AREA_STYLE ('',( #161 ) ) ;
#174 = CARTESIAN_POINT ( 'NONE',  ( 3.901968213289225496, -32.15973575610402690, 9.251390994748793429E-06 ) ) ;
#175 = EDGE_LOOP ( 'NONE', ( #794, #34 ) ) ;
#176 = SURFACE_SIDE_STYLE ('',( #103 ) ) ;
#177 = DIRECTION ( 'NONE',  ( 0.000000000000000000, -1.000000000000000000, -0.000000000000000000 ) ) ;
#178 = ORIENTED_EDGE ( 'NONE', *, *, #610, .F. ) ;
#179 = CYLINDRICAL_SURFACE ( 'NONE', #23, 4.312499999999999112 ) ;
#180 = ADVANCED_FACE ( 'NONE', ( #718 ), #3, .T. ) ;
#181 = EDGE_CURVE ( 'NONE', #355, #136, #286, .T. ) ;
#182 = CARTESIAN_POINT ( 'NONE',  ( 9.957243084196949923, -36.15973575610402690, 9.251390994748793429E-06 ) ) ;
#183 = AXIS2_PLACEMENT_3D ( 'NONE', #506, #557, #149 ) ;
#184 = DIRECTION ( 'NONE',  ( 0.000000000000000000, 0.000000000000000000, 1.000000000000000000 ) ) ;
#185 = VERTEX_POINT ( 'NONE', #414 ) ;
#186 = CIRCLE ( 'NONE', #697, 5.499999999999998224 ) ;
#187 = DIRECTION ( 'NONE',  ( 0.000000000000000000, 0.000000000000000000, -1.000000000000000000 ) ) ;
#188 = CARTESIAN_POINT ( 'NONE',  ( 3.901968213289225496, -55.65973575610402690, 4.250009251390993725 ) ) ;
#189 = ORIENTED_EDGE ( 'NONE', *, *, #542, .T. ) ;
#190 = DIRECTION ( 'NONE',  ( 0.000000000000000000, 0.000000000000000000, 1.000000000000000000 ) ) ;
#191 = ADVANCED_FACE ( 'NONE', ( #58 ), #345, .T. ) ;
#192 = CARTESIAN_POINT ( 'NONE',  ( 9.192508315111469486, -37.48176296419408970, 1.506443349729722048 ) ) ;
#193 = ORIENTED_EDGE ( 'NONE', *, *, #32, .T. ) ;
#194 = CARTESIAN_POINT ( 'NONE',  ( 12.70042190422045181, -36.15973575610402690, 9.251390994748793429E-06 ) ) ;
#195 = ORIENTED_EDGE ( 'NONE', *, *, #171, .F. ) ;
#196 = CARTESIAN_POINT ( 'NONE',  ( 9.168092528851790490, -37.38167914158667315, 1.588619131208702795 ) ) ;
#197 = CARTESIAN_POINT ( 'NONE',  ( 11.98208993714341553, -36.15973575610402690, -1.999907422392319889 ) ) ;
#198 = AXIS2_PLACEMENT_3D ( 'NONE', #450, #244, #598 ) ;
#199 = VERTEX_POINT ( 'NONE', #420 ) ;
#200 = AXIS2_PLACEMENT_3D ( 'NONE', #356, #422, #930 ) ;
#201 = DIRECTION ( 'NONE',  ( -0.000000000000000000, 1.000000000000000000, -0.000000000000000000 ) ) ;
#202 = LINE ( 'NONE', #352, #853 ) ;
#203 = ORIENTED_EDGE ( 'NONE', *, *, #472, .T. ) ;
#204 = ADVANCED_FACE ( 'NONE', ( #350 ), #596, .F. ) ;
#205 = FACE_OUTER_BOUND ( 'NONE', #507, .T. ) ;
#206 = DIRECTION ( 'NONE',  ( -1.000000000000000000, 0.000000000000000000, 0.000000000000000000 ) ) ;
#207 = DIRECTION ( 'NONE',  ( 0.000000000000000000, 0.000000000000000000, -1.000000000000000000 ) ) ;
#208 = EDGE_CURVE ( 'NONE', #548, #447, #703, .T. ) ;
#209 = FACE_OUTER_BOUND ( 'NONE', #868, .T. ) ;
#210 = CARTESIAN_POINT ( 'NONE',  ( 13.35024654055369808, -36.15973575610402690, 9.251390994748793429E-06 ) ) ;
#211 = ORIENTED_EDGE ( 'NONE', *, *, #781, .F. ) ;
#212 = AXIS2_PLACEMENT_3D ( 'NONE', #657, #510, #6 ) ;
#213 = DIRECTION ( 'NONE',  ( -0.9999999991532620980, 0.000000000000000000, 4.115186118568983035E-05 ) ) ;
#214 = ORIENTED_EDGE ( 'NONE', *, *, #410, .F. ) ;
#215 = CARTESIAN_POINT ( 'NONE',  ( 9.957243084196949923, -36.15973575610402690, -1.999990748609005164 ) ) ;
#216 = CARTESIAN_POINT ( 'NONE',  ( 9.364840210771323115, -34.26363655980856038, -0.6494210817739086705 ) ) ;
#217 = ADVANCED_FACE ( 'NONE', ( #108 ), #29, .F. ) ;
#218 = DIRECTION ( 'NONE',  ( 0.000000000000000000, 0.000000000000000000, 1.000000000000000000 ) ) ;
#219 = EDGE_LOOP ( 'NONE', ( #796, #165, #813, #910 ) ) ;
#220 = DIRECTION ( 'NONE',  ( 0.000000000000000000, 0.000000000000000000, -1.000000000000000000 ) ) ;
#221 = ORIENTED_EDGE ( 'NONE', *, *, #563, .T. ) ;
#222 = DIRECTION ( 'NONE',  ( -0.000000000000000000, 1.000000000000000000, -0.000000000000000000 ) ) ;
#223 = ORIENTED_EDGE ( 'NONE', *, *, #70, .F. ) ;
#224 = TOROIDAL_SURFACE ( 'NONE', #40, 3.812499999999999556, 0.5000000000000000000 ) ;
#225 = CARTESIAN_POINT ( 'NONE',  ( -1.598281786710777697, -36.15973575610402690, 9.251390994748793429E-06 ) ) ;
#226 = DIRECTION ( 'NONE',  ( 1.000000000000000000, -0.000000000000000000, -0.000000000000000000 ) ) ;
#227 = AXIS2_PLACEMENT_3D ( 'NONE', #182, #602, #825 ) ;
#228 = CARTESIAN_POINT ( 'NONE',  ( 13.16380910364600076, -36.15973575610402690, 0.7498772941727455121 ) ) ;
#229 = VERTEX_POINT ( 'NONE', #517 ) ;
#230 = CARTESIAN_POINT ( 'NONE',  ( 3.901968213289225496, -32.15973575610402690, 9.251390994748793429E-06 ) ) ;
#231 = CARTESIAN_POINT ( 'NONE',  ( 9.330664894592956671, -34.36445536004887202, 0.8913032249648095151 ) ) ;
#232 = EDGE_CURVE ( 'NONE', #298, #650, #85, .T. ) ;
#233 = CARTESIAN_POINT ( 'NONE',  ( 3.901968213289226384, -55.65973575610402690, -5.499990748609005387 ) ) ;
#234 = VERTEX_POINT ( 'NONE', #587 ) ;
#235 = DIRECTION ( 'NONE',  ( 0.000000000000000000, 0.000000000000000000, 1.000000000000000000 ) ) ;
#236 = CARTESIAN_POINT ( 'NONE',  ( 9.025443596269026258, -36.02839083871901238, 2.000009251390995502 ) ) ;
#237 = ADVANCED_FACE ( 'NONE', ( #881 ), #655, .F. ) ;
#238 = EDGE_CURVE ( 'NONE', #435, #799, #937, .T. ) ;
#239 = CARTESIAN_POINT ( 'NONE',  ( 8.085268345959601533, -36.25861893542941061, -0.7499907486090049424 ) ) ;
#240 = ORIENTED_EDGE ( 'NONE', *, *, #593, .T. ) ;
#241 = AXIS2_PLACEMENT_3D ( 'NONE', #913, #614, #329 ) ;
#242 = CIRCLE ( 'NONE', #112, 0.5000000000000004441 ) ;
#243 = VECTOR ( 'NONE', #574, 1000.000000000000000 ) ;
#244 = DIRECTION ( 'NONE',  ( 1.000000000000000000, 0.000000000000000000, 0.000000000000000000 ) ) ;
#245 = ORIENTED_EDGE ( 'NONE', *, *, #208, .F. ) ;
#246 = DIRECTION ( 'NONE',  ( 0.000000000000000000, 1.000000000000000000, -0.000000000000000000 ) ) ;
#247 = CIRCLE ( 'NONE', #459, 4.312499999999999112 ) ;
#248 = CARTESIAN_POINT ( 'NONE',  ( 16.40196821328922638, -36.15973575610402690, -3.812490748609004498 ) ) ;
#249 = VERTEX_POINT ( 'NONE', #527 ) ;
#250 = EDGE_CURVE ( 'NONE', #397, #545, #247, .T. ) ;
#251 = DIRECTION ( 'NONE',  ( 0.000000000000000000, 0.000000000000000000, -1.000000000000000000 ) ) ;
#252 = DIRECTION ( 'NONE',  ( 0.000000000000000000, 0.000000000000000000, -1.000000000000000000 ) ) ;
#253 = ORIENTED_EDGE ( 'NONE', *, *, #308, .F. ) ;
#254 = SPHERICAL_SURFACE ( 'NONE', #56, 5.499999999999996447 ) ;
#255 = AXIS2_PLACEMENT_3D ( 'NONE', #387, #663, #295 ) ;
#256 = CARTESIAN_POINT ( 'NONE',  ( 9.378644313729740389, -38.09482295141849306, 0.5221716350850594823 ) ) ;
#257 = EDGE_LOOP ( 'NONE', ( #865, #668, #738, #822 ) ) ;
#258 = FACE_OUTER_BOUND ( 'NONE', #306, .T. ) ;
#259 = CIRCLE ( 'NONE', #102, 25.00000000000000711 ) ;
#260 = EDGE_CURVE ( 'NONE', #518, #298, #720, .T. ) ;
#261 = DIRECTION ( 'NONE',  ( 0.000000000000000000, 0.000000000000000000, 1.000000000000000000 ) ) ;
#262 = ORIENTED_EDGE ( 'NONE', *, *, #631, .F. ) ;
#263 = DIRECTION ( 'NONE',  ( 0.000000000000000000, 0.000000000000000000, 1.000000000000000000 ) ) ;
#264 = ORIENTED_EDGE ( 'NONE', *, *, #70, .T. ) ;
#265 = MANIFOLD_SOLID_BREP ( '\X2\52079664\X0\-\X2\62c94f38\X0\1', #775 ) ;
#266 = CARTESIAN_POINT ( 'NONE',  ( 3.901968213289225496, -32.15973575610402690, 9.251390994748793429E-06 ) ) ;
#267 = DIRECTION ( 'NONE',  ( -0.9999999991532620980, 5.039649508001125200E-21, -4.115186118568983035E-05 ) ) ;
#268 = VERTEX_POINT ( 'NONE', #739 ) ;
#269 = CIRCLE ( 'NONE', #415, 5.499999999999996447 ) ;
#270 = CARTESIAN_POINT ( 'NONE',  ( 9.957191644370467998, -36.15973575610402690, 9.251390994748793429E-06 ) ) ;
#271 = CARTESIAN_POINT ( 'NONE',  ( 9.957217364282003658, -36.15973575610402690, -0.7499907486090052755 ) ) ;
#272 = ORIENTED_EDGE ( 'NONE', *, *, #101, .T. ) ;
#273 = CIRCLE ( 'NONE', #497, 0.5000000000000004441 ) ;
#274 = CARTESIAN_POINT ( 'NONE',  ( 36.90196821328922994, -36.15973575610402690, 9.251390994748793429E-06 ) ) ;
#275 = LINE ( 'NONE', #649, #745 ) ;
#276 = EDGE_CURVE ( 'NONE', #325, #492, #554, .T. ) ;
#277 = ORIENTED_EDGE ( 'NONE', *, *, #797, .F. ) ;
#278 = DIRECTION ( 'NONE',  ( 1.000000000000000000, 0.000000000000000000, 0.000000000000000000 ) ) ;
#279 = DIRECTION ( 'NONE',  ( -1.000000000000000000, 0.000000000000000000, 0.000000000000000000 ) ) ;
#280 = ORIENTED_EDGE ( 'NONE', *, *, #115, .T. ) ;
#281 = DIRECTION ( 'NONE',  ( -1.000000000000000000, -0.000000000000000000, -0.000000000000000000 ) ) ;
#282 = DIRECTION ( 'NONE',  ( -0.000000000000000000, 1.000000000000000000, -0.000000000000000000 ) ) ;
#283 = ORIENTED_EDGE ( 'NONE', *, *, #692, .T. ) ;
#284 = AXIS2_PLACEMENT_3D ( 'NONE', #841, #916, #632 ) ;
#285 = AXIS2_PLACEMENT_3D ( 'NONE', #694, #645, #424 ) ;
#286 = LINE ( 'NONE', #772, #172 ) ;
#287 = EDGE_LOOP ( 'NONE', ( #884, #367 ) ) ;
#288 = EDGE_CURVE ( 'NONE', #627, #518, #317, .T. ) ;
#289 = AXIS2_PLACEMENT_3D ( 'NONE', #376, #443, #652 ) ;
#290 = CARTESIAN_POINT ( 'NONE',  ( 8.136155462735585431, -35.49104750757756221, -0.3918903623597033703 ) ) ;
#291 = CARTESIAN_POINT ( 'NONE',  ( 8.151968213289222831, -32.15973575610402690, 9.251390994748793429E-06 ) ) ;
#292 = ORIENTED_EDGE ( 'NONE', *, *, #842, .T. ) ;
#293 = DIRECTION ( 'NONE',  ( 0.000000000000000000, 0.000000000000000000, 1.000000000000000000 ) ) ;
#294 = CARTESIAN_POINT ( 'NONE',  ( 9.401991210135621557, -34.15967251477004396, 0.1308347948440382880 ) ) ;
#295 = DIRECTION ( 'NONE',  ( 0.000000000000000000, 0.000000000000000000, -1.000000000000000000 ) ) ;
#296 = ORIENTED_EDGE ( 'NONE', *, *, #757, .F. ) ;
#297 = DIRECTION ( 'NONE',  ( 1.000000000000000000, 0.000000000000000000, 0.000000000000000000 ) ) ;
#298 = VERTEX_POINT ( 'NONE', #536 ) ;
#299 = DIRECTION ( 'NONE',  ( -0.000000000000000000, 1.000000000000000000, -0.000000000000000000 ) ) ;
#300 = ORIENTED_EDGE ( 'NONE', *, *, #685, .T. ) ;
#301 = CIRCLE ( 'NONE', #851, 5.500000000000000000 ) ;
#302 = DIRECTION ( 'NONE',  ( -0.000000000000000000, 1.000000000000000000, -0.000000000000000000 ) ) ;
#303 = DIRECTION ( 'NONE',  ( 0.000000000000000000, 0.000000000000000000, -1.000000000000000000 ) ) ;
#304 = AXIS2_PLACEMENT_3D ( 'NONE', #92, #812, #879 ) ;
#305 = FACE_OUTER_BOUND ( 'NONE', #727, .T. ) ;
#306 = EDGE_LOOP ( 'NONE', ( #253, #771, #7, #767, #150 ) ) ;
#307 = FACE_OUTER_BOUND ( 'NONE', #358, .T. ) ;
#308 = EDGE_CURVE ( 'NONE', #613, #249, #301, .T. ) ;
#309 = CARTESIAN_POINT ( 'NONE',  ( 9.025443596269022706, -36.02634336444307905, -1.999990748609005609 ) ) ;
#310 = AXIS2_PLACEMENT_3D ( 'NONE', #800, #442, #313 ) ;
#311 = CARTESIAN_POINT ( 'NONE',  ( 8.151984007119240871, -36.90982525448312401, 0.1962543841597178818 ) ) ;
#312 = VERTEX_POINT ( 'NONE', #14 ) ;
#313 = DIRECTION ( 'NONE',  ( 0.000000000000000000, 0.000000000000000000, -1.000000000000000000 ) ) ;
#314 = SPHERICAL_SURFACE ( 'NONE', #809, 23.75000000000000711 ) ;
#315 = ORIENTED_EDGE ( 'NONE', *, *, #423, .F. ) ;
#316 = DIRECTION ( 'NONE',  ( 1.000000000000000000, -0.000000000000000000, -0.000000000000000000 ) ) ;
#317 = CIRCLE ( 'NONE', #683, 3.062499999999999112 ) ;
#318 = AXIS2_PLACEMENT_3D ( 'NONE', #502, #491, #700 ) ;
#319 = AXIS2_PLACEMENT_3D ( 'NONE', #639, #279, #82 ) ;
#320 = ADVANCED_FACE ( 'NONE', ( #307 ), #409, .F. ) ;
#321 = CARTESIAN_POINT ( 'NONE',  ( 9.265296554811209617, -37.74721471910076076, -1.223497315757126502 ) ) ;
#322 = VERTEX_POINT ( 'NONE', #754 ) ;
#323 = AXIS2_PLACEMENT_3D ( 'NONE', #600, #246, #606 ) ;
#324 = CARTESIAN_POINT ( 'NONE',  ( -1.598281786710777697, -36.15973575610402690, 9.251390994748793429E-06 ) ) ;
#325 = VERTEX_POINT ( 'NONE', #271 ) ;
#326 = CARTESIAN_POINT ( 'NONE',  ( 16.40196821328922638, -36.15973575610402690, 9.251390994748793429E-06 ) ) ;
#327 = CARTESIAN_POINT ( 'NONE',  ( 9.365141338400814419, -38.05671093736516752, 0.6471114131403388203 ) ) ;
#328 = ORIENTED_EDGE ( 'NONE', *, *, #928, .T. ) ;
#329 = DIRECTION ( 'NONE',  ( 0.000000000000000000, 0.000000000000000000, -1.000000000000000000 ) ) ;
#330 = CIRCLE ( 'NONE', #468, 2.000000000000000000 ) ;
#331 = CARTESIAN_POINT ( 'NONE',  ( 9.401986121907086158, -38.15978500480616020, 0.1310488445488208475 ) ) ;
#332 = ORIENTED_EDGE ( 'NONE', *, *, #288, .T. ) ;
#333 = DIRECTION ( 'NONE',  ( 0.000000000000000000, 0.000000000000000000, -1.000000000000000000 ) ) ;
#334 = VECTOR ( 'NONE', #926, 1000.000000000000000 ) ;
#335 = ADVANCED_FACE ( 'NONE', ( #394, #258 ), #750, .T. ) ;
#336 = CARTESIAN_POINT ( 'NONE',  ( 9.192443477348753333, -37.48145711060837471, -1.506596958335612690 ) ) ;
#337 = FACE_OUTER_BOUND ( 'NONE', #860, .T. ) ;
#338 = EDGE_LOOP ( 'NONE', ( #682, #76, #100, #272 ) ) ;
#339 = CARTESIAN_POINT ( 'NONE',  ( 8.088900057993049231, -35.96311627559514790, 0.7304701703952720671 ) ) ;
#340 = LINE ( 'NONE', #464, #541 ) ;
#341 = EDGE_LOOP ( 'NONE', ( #129, #741, #620, #753 ) ) ;
#342 = LINE ( 'NONE', #642, #243 ) ;
#343 = DIRECTION ( 'NONE',  ( 0.000000000000000000, 0.000000000000000000, -1.000000000000000000 ) ) ;
#344 = ORIENTED_EDGE ( 'NONE', *, *, #208, .T. ) ;
#345 = CYLINDRICAL_SURFACE ( 'NONE', #81, 2.000000000000000000 ) ;
#346 = AXIS2_PLACEMENT_3D ( 'NONE', #31, #607, #819 ) ;
#347 = CARTESIAN_POINT ( 'NONE',  ( 8.085268345959603309, -36.15973575610402690, -0.7499907486090052755 ) ) ;
#348 = COLOUR_RGB ( '',0.7921568627450980005, 0.8196078431372548767, 0.9333333333333333481 ) ;
#349 = CARTESIAN_POINT ( 'NONE',  ( 9.025443596269024482, -36.15973575610402690, 2.000009251390995058 ) ) ;
#350 = FACE_OUTER_BOUND ( 'NONE', #219, .T. ) ;
#351 = CARTESIAN_POINT ( 'NONE',  ( 8.151978254938663682, -35.40967885341452615, 0.09747175677322193754 ) ) ;
#352 = CARTESIAN_POINT ( 'NONE',  ( 9.957243084196949923, -36.15973575610402690, 2.000009251390995058 ) ) ;
#353 = LINE ( 'NONE', #702, #139 ) ;
#354 = ADVANCED_FACE ( 'NONE', ( #540 ), #254, .T. ) ;
#355 = VERTEX_POINT ( 'NONE', #197 ) ;
#356 = CARTESIAN_POINT ( 'NONE',  ( -1.598281786710777697, -36.15973575610402690, 9.251390994748793429E-06 ) ) ;
#357 = CARTESIAN_POINT ( 'NONE',  ( 3.901968213289225496, -32.15973575610402690, 9.251390994748793429E-06 ) ) ;
#358 = EDGE_LOOP ( 'NONE', ( #53, #300, #245, #934 ) ) ;
#359 = DIRECTION ( 'NONE',  ( 0.000000000000000000, 0.000000000000000000, -1.000000000000000000 ) ) ;
#360 = CARTESIAN_POINT ( 'NONE',  ( 9.064904836652621256, -35.51162104522504137, 1.896560428525350339 ) ) ;
#361 = AXIS2_PLACEMENT_3D ( 'NONE', #591, #672, #381 ) ;
#362 = DIRECTION ( 'NONE',  ( -0.000000000000000000, 1.000000000000000000, -0.000000000000000000 ) ) ;
#363 = VERTEX_POINT ( 'NONE', #43 ) ;
#364 = CARTESIAN_POINT ( 'NONE',  ( 12.20651279587210958, -36.15973575610402690, -3.890296871057974393 ) ) ;
#365 = ADVANCED_FACE ( 'NONE', ( #763 ), #224, .T. ) ;
#366 = DIRECTION ( 'NONE',  ( 1.000000000000000000, 0.000000000000000000, 0.000000000000000000 ) ) ;
#367 = ORIENTED_EDGE ( 'NONE', *, *, #308, .T. ) ;
#368 = DIRECTION ( 'NONE',  ( 0.000000000000000000, 0.000000000000000000, -1.000000000000000000 ) ) ;
#369 = DIRECTION ( 'NONE',  ( -1.000000000000000000, -0.000000000000000000, -0.000000000000000000 ) ) ;
#370 = PRODUCT_CONTEXT ( 'NONE', #24, 'mechanical' ) ;
#371 = ADVANCED_FACE ( 'NONE', ( #39 ), #465, .T. ) ;
#372 = DIRECTION ( 'NONE',  ( 0.000000000000000000, 0.000000000000000000, -1.000000000000000000 ) ) ;
#373 = VERTEX_POINT ( 'NONE', #549 ) ;
#374 = DIRECTION ( 'NONE',  ( -1.000000000000000000, -0.000000000000000000, -0.000000000000000000 ) ) ;
#375 = CIRCLE ( 'NONE', #96, 3.062499999999999112 ) ;
#376 = CARTESIAN_POINT ( 'NONE',  ( 12.20651279587210780, -36.15973575610402690, 9.251390994748793429E-06 ) ) ;
#377 = AXIS2_PLACEMENT_3D ( 'NONE', #270, #281, #922 ) ;
#378 = TOROIDAL_SURFACE ( 'NONE', #30, 3.812499999999999556, 0.5000000000000000000 ) ;
#379 = FACE_OUTER_BOUND ( 'NONE', #457, .T. ) ;
#380 = ORIENTED_EDGE ( 'NONE', *, *, #238, .T. ) ;
#381 = DIRECTION ( 'NONE',  ( 0.000000000000000000, 0.000000000000000000, -1.000000000000000000 ) ) ;
#382 = CARTESIAN_POINT ( 'NONE',  ( 0.000000000000000000, 0.000000000000000000, 0.000000000000000000 ) ) ;
#383 = CARTESIAN_POINT ( 'NONE',  ( 8.085268345959603309, -36.15973575610402690, -0.7499907486090052755 ) ) ;
#384 = ORIENTED_EDGE ( 'NONE', *, *, #610, .T. ) ;
#385 = DIRECTION ( 'NONE',  ( 1.000000000000000000, 0.000000000000000000, 0.000000000000000000 ) ) ;
#386 = EDGE_CURVE ( 'NONE', #199, #430, #834, .T. ) ;
#387 = CARTESIAN_POINT ( 'NONE',  ( 36.90196821328922994, -36.15973575610402690, 9.251390994748793429E-06 ) ) ;
#388 = VERTEX_POINT ( 'NONE', #621 ) ;
#389 = CARTESIAN_POINT ( 'NONE',  ( 9.957217364282003658, -36.15973575610402690, 9.251390994748793429E-06 ) ) ;
#390 = AXIS2_PLACEMENT_3D ( 'NONE', #194, #398, #471 ) ;
#391 = AXIS2_PLACEMENT_3D ( 'NONE', #635, #75, #343 ) ;
#392 = CARTESIAN_POINT ( 'NONE',  ( 9.330771377146383827, -37.95532427147465881, -0.8904356072588220927 ) ) ;
#393 = ORIENTED_EDGE ( 'NONE', *, *, #636, .T. ) ;
#394 = FACE_BOUND ( 'NONE', #599, .T. ) ;
#395 = EDGE_CURVE ( 'NONE', #42, #355, #151, .T. ) ;
#396 = CARTESIAN_POINT ( 'NONE',  ( 9.050472840007200759, -36.68300765103458616, 1.934867428409172696 ) ) ;
#397 = VERTEX_POINT ( 'NONE', #479 ) ;
#398 = DIRECTION ( 'NONE',  ( 1.000000000000000000, -0.000000000000000000, -0.000000000000000000 ) ) ;
#399 = DIRECTION ( 'NONE',  ( -0.000000000000000000, 1.000000000000000000, -0.000000000000000000 ) ) ;
#400 = ORIENTED_EDGE ( 'NONE', *, *, #386, .T. ) ;
#401 = ADVANCED_FACE ( 'NONE', ( #902 ), #122, .F. ) ;
#402 = CARTESIAN_POINT ( 'NONE',  ( 3.901968213289225496, -32.15973575610402690, 9.251390994748793429E-06 ) ) ;
#403 = CIRCLE ( 'NONE', #925, 1.999916673783314724 ) ;
#404 = CIRCLE ( 'NONE', #123, 5.499999999999998224 ) ;
#405 = CARTESIAN_POINT ( 'NONE',  ( 9.121862434055058699, -37.16391946196132778, -1.734470953523386427 ) ) ;
#406 = AXIS2_PLACEMENT_3D ( 'NONE', #538, #500, #564 ) ;
#407 = DIRECTION ( 'NONE',  ( 0.000000000000000000, 0.000000000000000000, -1.000000000000000000 ) ) ;
#408 = DIRECTION ( 'NONE',  ( 0.000000000000000000, 0.000000000000000000, -1.000000000000000000 ) ) ;
#409 = SPHERICAL_SURFACE ( 'NONE', #109, 4.249999999999995559 ) ;
#410 = EDGE_CURVE ( 'NONE', #355, #132, #403, .T. ) ;
#411 = CARTESIAN_POINT ( 'NONE',  ( 8.148414074222321446, -35.42920692327816568, 0.1961095901672998965 ) ) ;
#412 = LINE ( 'NONE', #766, #872 ) ;
#413 = ORIENTED_EDGE ( 'NONE', *, *, #423, .T. ) ;
#414 = CARTESIAN_POINT ( 'NONE',  ( 3.901968213289225496, -32.15973575610402690, 4.250009251390990173 ) ) ;
#415 = AXIS2_PLACEMENT_3D ( 'NONE', #484, #52, #690 ) ;
#416 = AXIS2_PLACEMENT_3D ( 'NONE', #210, #206, #417 ) ;
#417 = DIRECTION ( 'NONE',  ( 0.000000000000000000, 0.000000000000000000, -1.000000000000000000 ) ) ;
#418 = AXIS2_PLACEMENT_3D ( 'NONE', #174, #11, #530 ) ;
#419 = ORIENTED_EDGE ( 'NONE', *, *, #101, .F. ) ;
#420 = CARTESIAN_POINT ( 'NONE',  ( 16.90196821328922638, -36.15973575610402690, -3.812490748609004498 ) ) ;
#421 = AXIS2_PLACEMENT_3D ( 'NONE', #431, #637, #359 ) ;
#422 = DIRECTION ( 'NONE',  ( 1.000000000000000000, 0.000000000000000000, 0.000000000000000000 ) ) ;
#423 = EDGE_CURVE ( 'NONE', #298, #325, #48, .T. ) ;
#424 = DIRECTION ( 'NONE',  ( -1.000000000000000000, 0.000000000000000000, -1.224645408779008614E-16 ) ) ;
#425 = EDGE_LOOP ( 'NONE', ( #315, #141, #328, #717 ) ) ;
#426 = PLANE ( 'NONE',  #932 ) ;
#427 = CARTESIAN_POINT ( 'NONE',  ( 8.085268345959603309, -36.15973575610402690, 0.7500092513909947245 ) ) ;
#428 = CARTESIAN_POINT ( 'NONE',  ( 13.35024654055369808, -36.15973575610402690, -3.062490748609008939 ) ) ;
#429 = ADVANCED_FACE ( 'NONE', ( #337 ), #179, .T. ) ;
#430 = VERTEX_POINT ( 'NONE', #475 ) ;
#431 = CARTESIAN_POINT ( 'NONE',  ( 36.90196821328922994, -36.15973575610402690, 9.251390994748793429E-06 ) ) ;
#432 = CARTESIAN_POINT ( 'NONE',  ( 9.365105274463205731, -34.26285658440266246, 0.6475322670085568166 ) ) ;
#433 = AXIS2_PLACEMENT_3D ( 'NONE', #680, #823, #263 ) ;
#434 = DIRECTION ( 'NONE',  ( 1.000000000000000000, 0.000000000000000000, 0.000000000000000000 ) ) ;
#435 = VERTEX_POINT ( 'NONE', #835 ) ;
#436 = AXIS2_PLACEMENT_3D ( 'NONE', #357, #570, #489 ) ;
#437 = CYLINDRICAL_SURFACE ( 'NONE', #619, 4.312499999999999112 ) ;
#438 = CARTESIAN_POINT ( 'NONE',  ( 9.025443596269024482, -36.15973575610402690, 2.000009251390995058 ) ) ;
#439 = AXIS2_PLACEMENT_3D ( 'NONE', #762, #177, #110 ) ;
#440 = CIRCLE ( 'NONE', #421, 23.75000000000000711 ) ;
#441 = ORIENTED_EDGE ( 'NONE', *, *, #579, .F. ) ;
#442 = DIRECTION ( 'NONE',  ( -1.000000000000000000, -0.000000000000000000, -0.000000000000000000 ) ) ;
#443 = DIRECTION ( 'NONE',  ( -1.000000000000000000, 0.000000000000000000, 0.000000000000000000 ) ) ;
#444 = EDGE_CURVE ( 'NONE', #531, #234, #269, .T. ) ;
#445 = EDGE_CURVE ( 'NONE', #397, #312, #340, .T. ) ;
#446 = DIRECTION ( 'NONE',  ( 0.000000000000000000, 0.000000000000000000, 1.000000000000000000 ) ) ;
#447 = VERTEX_POINT ( 'NONE', #770 ) ;
#448 = DIRECTION ( 'NONE',  ( 0.000000000000000000, 0.000000000000000000, 1.000000000000000000 ) ) ;
#449 = CARTESIAN_POINT ( 'NONE',  ( 9.310249632892155347, -34.42646257542220667, 1.006291289484153584 ) ) ;
#450 = CARTESIAN_POINT ( 'NONE',  ( 16.90196821328922638, -36.15973575610402690, 9.251390994748793429E-06 ) ) ;
#451 = ORIENTED_EDGE ( 'NONE', *, *, #597, .T. ) ;
#452 =( NAMED_UNIT ( * ) SI_UNIT ( $, .STERADIAN. ) SOLID_ANGLE_UNIT ( ) );
#453 = CONICAL_SURFACE ( 'NONE', #284, 2.000000000000000000, 4.115186119730477980E-05 ) ;
#454 = CARTESIAN_POINT ( 'NONE',  ( -1.598281786710777697, -36.15973575610402690, -1.999990748609005164 ) ) ;
#455 = AXIS2_PLACEMENT_3D ( 'NONE', #525, #807, #667 ) ;
#456 = FACE_OUTER_BOUND ( 'NONE', #83, .T. ) ;
#457 = EDGE_LOOP ( 'NONE', ( #400, #393 ) ) ;
#458 = EDGE_CURVE ( 'NONE', #373, #21, #615, .T. ) ;
#459 = AXIS2_PLACEMENT_3D ( 'NONE', #810, #316, #885 ) ;
#460 = PLANE ( 'NONE',  #9 ) ;
#461 = ORIENTED_EDGE ( 'NONE', *, *, #537, .F. ) ;
#462 = CARTESIAN_POINT ( 'NONE',  ( 36.90196821328922994, -36.15973575610402690, 9.251390994748793429E-06 ) ) ;
#463 = ORIENTED_EDGE ( 'NONE', *, *, #63, .F. ) ;
#464 = CARTESIAN_POINT ( 'NONE',  ( 11.90196821328922461, -36.15973575610402690, 4.312509251390993725 ) ) ;
#465 = TOROIDAL_SURFACE ( 'NONE', #390, 3.812499999999999556, 0.5000000000000000000 ) ;
#466 = CARTESIAN_POINT ( 'NONE',  ( 16.40196821328922638, -36.15973575610402690, 9.251390994748793429E-06 ) ) ;
#467 = EDGE_CURVE ( 'NONE', #21, #373, #375, .T. ) ;
#468 = AXIS2_PLACEMENT_3D ( 'NONE', #845, #863, #218 ) ;
#469 = DIRECTION ( 'NONE',  ( 0.000000000000000000, 0.000000000000000000, -1.000000000000000000 ) ) ;
#470 = ORIENTED_EDGE ( 'NONE', *, *, #593, .F. ) ;
#471 = DIRECTION ( 'NONE',  ( 0.000000000000000000, 0.000000000000000000, -1.000000000000000000 ) ) ;
#472 = EDGE_CURVE ( 'NONE', #312, #388, #929, .T. ) ;
#473 = CARTESIAN_POINT ( 'NONE',  ( 9.397201505189945792, -38.14673806398055689, -0.2632762187620326655 ) ) ;
#474 = ORIENTED_EDGE ( 'NONE', *, *, #768, .T. ) ;
#475 = CARTESIAN_POINT ( 'NONE',  ( 16.90196821328922638, -36.15973575610402690, 3.812509251390994169 ) ) ;
#476 = CARTESIAN_POINT ( 'NONE',  ( 9.030656813266341842, -36.42391165489759430, -1.986773866291473345 ) ) ;
#477 = ORIENTED_EDGE ( 'NONE', *, *, #87, .T. ) ;
#478 = B_SPLINE_CURVE_WITH_KNOTS ( 'NONE', 3,
 ( #589, #883, #873, #514, #798, #792, #311, #155, #159, #520, #721, #594, #239, #383 ),
 .UNSPECIFIED., .F., .F.,
 ( 4, 2, 2, 2, 2, 2, 4 ),
 ( 0.0001370424918138700996, 0.0004307744728793644969, 0.0007245064539448588942, 0.001311970416075862976, 0.001899434378206866624, 0.002193166359272368665, 0.002486898340337870706 ),
 .UNSPECIFIED. ) ;
#479 = CARTESIAN_POINT ( 'NONE',  ( 12.70042190422045181, -36.15973575610402690, 4.312509251390993725 ) ) ;
#480 = EDGE_LOOP ( 'NONE', ( #535, #917, #590, #178 ) ) ;
#481 = AXIS2_PLACEMENT_3D ( 'NONE', #144, #920, #715 ) ;
#482 = CARTESIAN_POINT ( 'NONE',  ( 9.241713223250151543, -37.66665915871734427, 1.321478694936434772 ) ) ;
#483 = VECTOR ( 'NONE', #213, 1000.000000000000114 ) ;
#484 = CARTESIAN_POINT ( 'NONE',  ( 3.901968213289225496, -32.15973575610402690, 9.251390994748793429E-06 ) ) ;
#485 = ADVANCED_FACE ( 'NONE', ( #64 ), #453, .T. ) ;
#486 = ORIENTED_EDGE ( 'NONE', *, *, #876, .T. ) ;
#487 = AXIS2_PLACEMENT_3D ( 'NONE', #733, #105, #522 ) ;
#488 = FACE_BOUND ( 'NONE', #664, .T. ) ;
#489 = DIRECTION ( 'NONE',  ( 0.000000000000000000, 0.000000000000000000, 1.000000000000000000 ) ) ;
#490 = CYLINDRICAL_SURFACE ( 'NONE', #890, 3.062499999999999112 ) ;
#491 = DIRECTION ( 'NONE',  ( 1.000000000000000000, 0.000000000000000000, 0.000000000000000000 ) ) ;
#492 = VERTEX_POINT ( 'NONE', #782 ) ;
#493 = EDGE_CURVE ( 'NONE', #132, #322, #202, .T. ) ;
#494 = CARTESIAN_POINT ( 'NONE',  ( 8.136150977124232853, -35.50424082606141241, 0.3774401922881757132 ) ) ;
#495 = AXIS2_PLACEMENT_3D ( 'NONE', #585, #867, #16 ) ;
#496 = DIRECTION ( 'NONE',  ( 1.000000000000000000, 0.000000000000000000, 0.000000000000000000 ) ) ;
#497 = AXIS2_PLACEMENT_3D ( 'NONE', #248, #623, #752 ) ;
#498 = VERTEX_POINT ( 'NONE', #349 ) ;
#499 = EDGE_CURVE ( 'NONE', #650, #298, #644, .T. ) ;
#500 = DIRECTION ( 'NONE',  ( -1.000000000000000000, -0.000000000000000000, -0.000000000000000000 ) ) ;
#501 = PRODUCT_DEFINITION ( 'æœ', '', #856, #55 ) ;
#502 = CARTESIAN_POINT ( 'NONE',  ( 16.90196821328922638, -36.15973575610402690, 9.251390994748793429E-06 ) ) ;
#503 = ORIENTED_EDGE ( 'NONE', *, *, #524, .T. ) ;
#504 = DIRECTION ( 'NONE',  ( -0.000000000000000000, 1.000000000000000000, 0.000000000000000000 ) ) ;
#505 = CARTESIAN_POINT ( 'NONE',  ( 9.397116664408581954, -34.17296984590057463, 0.2646141729058718584 ) ) ;
#506 = CARTESIAN_POINT ( 'NONE',  ( 16.40196821328922638, -36.15973575610402690, 9.251390994748793429E-06 ) ) ;
#507 = EDGE_LOOP ( 'NONE', ( #804, #880, #384, #695 ) ) ;
#508 = DIRECTION ( 'NONE',  ( 0.000000000000000000, 1.000000000000000000, -1.224646799147353207E-16 ) ) ;
#509 = CARTESIAN_POINT ( 'NONE',  ( 36.90196821328922994, -36.15973575610402690, 9.251390994748793429E-06 ) ) ;
#510 = DIRECTION ( 'NONE',  ( -1.000000000000000000, -0.000000000000000000, -0.000000000000000000 ) ) ;
#511 = ORIENTED_EDGE ( 'NONE', *, *, #467, .T. ) ;
#512 = ADVANCED_FACE ( 'NONE', ( #710 ), #791, .T. ) ;
#513 = DIRECTION ( 'NONE',  ( 0.000000000000000000, 0.000000000000000000, -1.000000000000000000 ) ) ;
#514 = CARTESIAN_POINT ( 'NONE',  ( 8.101322616514183395, -36.53754416925086446, 0.6552731591369298503 ) ) ;
#515 = ORIENTED_EDGE ( 'NONE', *, *, #444, .T. ) ;
#516 = AXIS2_PLACEMENT_3D ( 'NONE', #891, #385, #368 ) ;
#517 = CARTESIAN_POINT ( 'NONE',  ( 8.085268345959603309, -36.15973575610402690, -0.7499907486090052755 ) ) ;
#518 = VERTEX_POINT ( 'NONE', #428 ) ;
#519 = SHAPE_DEFINITION_REPRESENTATION ( #73, #166 ) ;
#520 = CARTESIAN_POINT ( 'NONE',  ( 8.110061875943950227, -36.62097323044410757, -0.5993932019469034866 ) ) ;
#521 = ORIENTED_EDGE ( 'NONE', *, *, #5, .T. ) ;
#522 = DIRECTION ( 'NONE',  ( 1.000000000000000000, 0.000000000000000000, 0.000000000000000000 ) ) ;
#523 = DIRECTION ( 'NONE',  ( 0.000000000000000000, 0.000000000000000000, 1.000000000000000000 ) ) ;
#524 = EDGE_CURVE ( 'NONE', #831, #42, #761, .T. ) ;
#525 = CARTESIAN_POINT ( 'NONE',  ( 12.70042190422045181, -36.15973575610402690, 3.812509251390994169 ) ) ;
#526 = ORIENTED_EDGE ( 'NONE', *, *, #19, .T. ) ;
#527 = CARTESIAN_POINT ( 'NONE',  ( 3.901968213289225496, -55.65973575610402690, 5.500009251390993725 ) ) ;
#528 = AXIS2_PLACEMENT_3D ( 'NONE', #274, #559, #844 ) ;
#529 = CIRCLE ( 'NONE', #573, 0.4999999999999995559 ) ;
#530 = DIRECTION ( 'NONE',  ( 1.000000000000000000, 0.000000000000000000, 0.000000000000000000 ) ) ;
#531 = VERTEX_POINT ( 'NONE', #859 ) ;
#532 = SURFACE_STYLE_USAGE ( .BOTH. , #176 ) ;
#533 = AXIS2_PLACEMENT_3D ( 'NONE', #90, #22, #235 ) ;
#534 = DIRECTION ( 'NONE',  ( -0.000000000000000000, -1.000000000000000000, -0.000000000000000000 ) ) ;
#535 = ORIENTED_EDGE ( 'NONE', *, *, #692, .F. ) ;
#536 = CARTESIAN_POINT ( 'NONE',  ( 13.16380910364600076, -36.15973575610402690, -0.7498587913907560631 ) ) ;
#537 = EDGE_CURVE ( 'NONE', #613, #783, #565, .T. ) ;
#538 = CARTESIAN_POINT ( 'NONE',  ( 11.98208993714341553, -36.15973575610402690, 9.251390994748793429E-06 ) ) ;
#539 = ORIENTED_EDGE ( 'NONE', *, *, #757, .T. ) ;
#540 = FACE_OUTER_BOUND ( 'NONE', #89, .T. ) ;
#541 = VECTOR ( 'NONE', #1, 1000.000000000000000 ) ;
#542 = EDGE_CURVE ( 'NONE', #548, #874, #659, .T. ) ;
#543 = VECTOR ( 'NONE', #299, 1000.000000000000000 ) ;
#544 = CARTESIAN_POINT ( 'NONE',  ( 9.364830264688020378, -38.05580962524479816, -0.6495552531721340284 ) ) ;
#545 = VERTEX_POINT ( 'NONE', #135 ) ;
#546 = AXIS2_PLACEMENT_3D ( 'NONE', #724, #369, #523 ) ;
#547 = CARTESIAN_POINT ( 'NONE',  ( 9.265861527004437548, -37.74909211671015896, 1.220957668914846250 ) ) ;
#548 = VERTEX_POINT ( 'NONE', #291 ) ;
#549 = CARTESIAN_POINT ( 'NONE',  ( 16.90196821328922638, -36.15973575610402690, 3.062509251390994169 ) ) ;
#550 = EDGE_CURVE ( 'NONE', #498, #322, #412, .T. ) ;
#551 = CARTESIAN_POINT ( 'NONE',  ( 3.901968213289226384, -32.15973575610402690, -5.499990748609003610 ) ) ;
#552 = DIRECTION ( 'NONE',  ( -0.000000000000000000, 1.000000000000000000, -0.000000000000000000 ) ) ;
#553 = VERTEX_POINT ( 'NONE', #923 ) ;
#554 = CIRCLE ( 'NONE', #871, 0.7500000000000000000 ) ;
#555 = CIRCLE ( 'NONE', #304, 5.499999999999998224 ) ;
#556 = CYLINDRICAL_SURFACE ( 'NONE', #200, 0.7500000000000000000 ) ;
#557 = DIRECTION ( 'NONE',  ( -1.000000000000000000, -0.000000000000000000, -0.000000000000000000 ) ) ;
#558 = EDGE_LOOP ( 'NONE', ( #836, #503, #586, #676 ) ) ;
#559 = DIRECTION ( 'NONE',  ( -0.000000000000000000, -1.000000000000000000, -0.000000000000000000 ) ) ;
#560 = DIRECTION ( 'NONE',  ( 1.000000000000000000, 0.000000000000000000, 0.000000000000000000 ) ) ;
#561 = ORIENTED_EDGE ( 'NONE', *, *, #622, .T. ) ;
#562 = DIRECTION ( 'NONE',  ( 0.000000000000000000, 0.000000000000000000, -1.000000000000000000 ) ) ;
#563 = EDGE_CURVE ( 'NONE', #268, #234, #915, .T. ) ;
#564 = DIRECTION ( 'NONE',  ( 0.000000000000000000, 0.000000000000000000, 1.000000000000000000 ) ) ;
#565 = LINE ( 'NONE', #57, #837 ) ;
#566 = ORIENTED_EDGE ( 'NONE', *, *, #665, .T. ) ;
#567 = CARTESIAN_POINT ( 'NONE',  ( 11.90196821328922461, -36.15973575610402690, 9.251390994748793429E-06 ) ) ;
#568 = EDGE_CURVE ( 'NONE', #185, #548, #78, .T. ) ;
#569 = DIRECTION ( 'NONE',  ( 0.000000000000000000, 0.000000000000000000, -1.000000000000000000 ) ) ;
#570 = DIRECTION ( 'NONE',  ( -0.000000000000000000, 1.000000000000000000, -0.000000000000000000 ) ) ;
#571 = ORIENTED_EDGE ( 'NONE', *, *, #163, .T. ) ;
#572 = CARTESIAN_POINT ( 'NONE',  ( 9.122013657898278893, -35.15471607936993337, -1.734036549194134968 ) ) ;
#573 = AXIS2_PLACEMENT_3D ( 'NONE', #146, #508, #293 ) ;
#574 = DIRECTION ( 'NONE',  ( -0.000000000000000000, 1.000000000000000000, -0.000000000000000000 ) ) ;
#575 = CARTESIAN_POINT ( 'NONE',  ( 11.90196821328922461, -36.15973575610402690, -4.312490748609005387 ) ) ;
#576 = ORIENTED_EDGE ( 'NONE', *, *, #163, .F. ) ;
#577 = FACE_OUTER_BOUND ( 'NONE', #338, .T. ) ;
#578 = LINE ( 'NONE', #719, #878 ) ;
#579 = EDGE_CURVE ( 'NONE', #545, #388, #933, .T. ) ;
#580 = EDGE_CURVE ( 'NONE', #2, #492, #275, .T. ) ;
#581 = FACE_OUTER_BOUND ( 'NONE', #425, .T. ) ;
#582 = EDGE_LOOP ( 'NONE', ( #93, #107, #828, #470 ) ) ;
#583 = PRODUCT_RELATED_PRODUCT_CATEGORY ( 'part', '', ( #931 ) ) ;
#584 = CARTESIAN_POINT ( 'NONE',  ( 9.378645520304289107, -34.22464490364237122, 0.5221949838230623975 ) ) ;
#585 = CARTESIAN_POINT ( 'NONE',  ( 3.901968213289225496, -32.15973575610402690, 9.251390994748793429E-06 ) ) ;
#586 = ORIENTED_EDGE ( 'NONE', *, *, #395, .T. ) ;
#587 = CARTESIAN_POINT ( 'NONE',  ( 3.901968213289225940, -26.65973575610403046, 9.251390994748793429E-06 ) ) ;
#588 = CARTESIAN_POINT ( 'NONE',  ( 9.401945047740010608, -34.15979946137078826, -0.1327428075904467653 ) ) ;
#589 = CARTESIAN_POINT ( 'NONE',  ( 8.085268345959603309, -36.15973575610402690, 0.7500092513909947245 ) ) ;
#590 = ORIENTED_EDGE ( 'NONE', *, *, #276, .F. ) ;
#591 = CARTESIAN_POINT ( 'NONE',  ( 36.90196821328922994, -36.15973575610402690, 9.251390994748793429E-06 ) ) ;
#592 = CARTESIAN_POINT ( 'NONE',  ( 9.065009197839248856, -35.51069006920559445, -1.896268056202024210 ) ) ;
#593 = EDGE_CURVE ( 'NONE', #136, #322, #330, .T. ) ;
#594 = CARTESIAN_POINT ( 'NONE',  ( 8.088920986968062721, -36.35655355455591575, -0.7303170825234273078 ) ) ;
#595 = ORIENTED_EDGE ( 'NONE', *, *, #829, .T. ) ;
#596 = SPHERICAL_SURFACE ( 'NONE', #361, 23.75000000000000711 ) ;
#597 = EDGE_CURVE ( 'NONE', #518, #627, #773, .T. ) ;
#598 = DIRECTION ( 'NONE',  ( 0.000000000000000000, 0.000000000000000000, -1.000000000000000000 ) ) ;
#599 = EDGE_LOOP ( 'NONE', ( #49, #296 ) ) ;
#600 = CARTESIAN_POINT ( 'NONE',  ( 36.90196821328922994, -36.15973575610402690, 9.251390994748793429E-06 ) ) ;
#601 = B_SPLINE_CURVE_WITH_KNOTS ( 'NONE', 3,
 ( #121, #900, #681, #396, #127, #116, #678, #196, #192, #482, #547, #41, #36, #327, #256, #742, #331, #830, #473, #893, #544, #392, #618, #321, #908, #336, #905, #405, #827, #604, #821, #476, #686, #46 ),
 .UNSPECIFIED., .F., .F.,
 ( 4, 2, 2, 2, 2, 2, 2, 2, 2, 2, 2, 2, 2, 2, 2, 2, 4 ),
 ( 0.006307240766315380491, 0.006701350880597458683, 0.007095460994879536874, 0.007489571109161615066, 0.007883681223443694125, 0.008277791337725772317, 0.008671901452007850508, 0.009066011566289928700, 0.009460121680572006891, 0.009854231794854085083, 0.01024834190913616327, 0.01064245202341824320, 0.01103656213770031966, 0.01143067225198239958, 0.01182478236626447778, 0.01221889248054655597, 0.01261300259482863416 ),
 .UNSPECIFIED. ) ;
#602 = DIRECTION ( 'NONE',  ( -1.000000000000000000, -0.000000000000000000, -0.000000000000000000 ) ) ;
#603 = AXIS2_PLACEMENT_3D ( 'NONE', #780, #919, #786 ) ;
#604 = CARTESIAN_POINT ( 'NONE',  ( 9.064815038712094264, -36.80730699828747277, -1.896799024539483458 ) ) ;
#605 = ORIENTED_EDGE ( 'NONE', *, *, #276, .T. ) ;
#606 = DIRECTION ( 'NONE',  ( 0.000000000000000000, 0.000000000000000000, 1.000000000000000000 ) ) ;
#607 = DIRECTION ( 'NONE',  ( -0.000000000000000000, 1.000000000000000000, -0.000000000000000000 ) ) ;
#608 = CYLINDRICAL_SURFACE ( 'NONE', #630, 5.500000000000000000 ) ;
#609 = ORIENTED_EDGE ( 'NONE', *, *, #524, .F. ) ;
#610 = EDGE_CURVE ( 'NONE', #229, #325, #705, .T. ) ;
#611 = DIRECTION ( 'NONE',  ( 0.000000000000000000, 0.000000000000000000, -1.000000000000000000 ) ) ;
#612 = CARTESIAN_POINT ( 'NONE',  ( 12.70042190422045181, -36.15973575610402690, -3.812490748609004498 ) ) ;
#613 = VERTEX_POINT ( 'NONE', #233 ) ;
#614 = DIRECTION ( 'NONE',  ( 1.000000000000000000, 0.000000000000000000, 0.000000000000000000 ) ) ;
#615 = CIRCLE ( 'NONE', #318, 3.062499999999999112 ) ;
#616 = CIRCLE ( 'NONE', #495, 4.249999999999995559 ) ;
#617 = CONICAL_SURFACE ( 'NONE', #377, 0.7500000010584222387, 4.115186119730477980E-05 ) ;
#618 = CARTESIAN_POINT ( 'NONE',  ( 9.310192441003913189, -37.89285082909378843, -1.006653513186804183 ) ) ;
#619 = AXIS2_PLACEMENT_3D ( 'NONE', #567, #852, #562 ) ;
#620 = ORIENTED_EDGE ( 'NONE', *, *, #386, .F. ) ;
#621 = CARTESIAN_POINT ( 'NONE',  ( 16.40196821328922638, -36.15973575610402690, -4.312490748609005387 ) ) ;
#622 = EDGE_CURVE ( 'NONE', #531, #783, #186, .T. ) ;
#623 = DIRECTION ( 'NONE',  ( 0.000000000000000000, -1.000000000000000000, 0.000000000000000000 ) ) ;
#624 = CARTESIAN_POINT ( 'NONE',  ( 11.90196821328922461, -36.15973575610402690, 9.251390994748793429E-06 ) ) ;
#625 = FACE_OUTER_BOUND ( 'NONE', #37, .T. ) ;
#626 = DIRECTION ( 'NONE',  ( 1.000000000000000000, 0.000000000000000000, 0.000000000000000000 ) ) ;
#627 = VERTEX_POINT ( 'NONE', #726 ) ;
#628 = AXIS2_PLACEMENT_3D ( 'NONE', #776, #282, #849 ) ;
#629 = CARTESIAN_POINT ( 'NONE',  ( 11.90196821328922461, -36.15973575610402690, 9.251390994748793429E-06 ) ) ;
#630 = AXIS2_PLACEMENT_3D ( 'NONE', #833, #755, #261 ) ;
#631 = EDGE_CURVE ( 'NONE', #268, #363, #555, .T. ) ;
#632 = DIRECTION ( 'NONE',  ( 0.000000000000000000, 0.000000000000000000, 1.000000000000000000 ) ) ;
#633 = CONICAL_SURFACE ( 'NONE', #227, 2.000000000000000000, 4.115186119730477980E-05 ) ;
#634 = CARTESIAN_POINT ( 'NONE',  ( -1.598281786710777697, -36.15973575610402690, 9.251390994748793429E-06 ) ) ;
#635 = CARTESIAN_POINT ( 'NONE',  ( 12.70042190422045181, -36.15973575610402690, 9.251390994748793429E-06 ) ) ;
#636 = EDGE_CURVE ( 'NONE', #430, #199, #824, .T. ) ;
#637 = DIRECTION ( 'NONE',  ( 0.000000000000000000, -1.000000000000000000, -1.224646799147353207E-16 ) ) ;
#638 = CARTESIAN_POINT ( 'NONE',  ( 8.085268345959603309, -35.96206084662357227, -0.7499907486090051645 ) ) ;
#639 = CARTESIAN_POINT ( 'NONE',  ( 12.20651279587210780, -36.15973575610402690, 9.251390994748793429E-06 ) ) ;
#640 = ORIENTED_EDGE ( 'NONE', *, *, #38, .T. ) ;
#641 = MECHANICAL_DESIGN_GEOMETRIC_PRESENTATION_REPRESENTATION (  '', ( #66 ), #669 ) ;
#642 = CARTESIAN_POINT ( 'NONE',  ( 3.901968213289225496, -32.15973575610402690, 5.500009251390993725 ) ) ;
#643 = B_SPLINE_CURVE_WITH_KNOTS ( 'NONE', 3,
 ( #347, #638, #134, #290, #689, #351, #411, #494, #912, #130, #774, #339, #54, #427 ),
 .UNSPECIFIED., .F., .F.,
 ( 4, 2, 2, 2, 2, 2, 4 ),
 ( 0.002486898340337870706, 0.003074090653173708072, 0.003661282966009545871, 0.003954879122427464554, 0.004248475278845383236, 0.004542071435263301919, 0.004835667591681220602 ),
 .UNSPECIFIED. ) ;
#644 = CIRCLE ( 'NONE', #481, 0.7498680427817507876 ) ;
#645 = DIRECTION ( 'NONE',  ( 1.224646799147353207E-16, 0.000000000000000000, -1.000000000000000000 ) ) ;
#646 = ORIENTED_EDGE ( 'NONE', *, *, #238, .F. ) ;
#647 = CARTESIAN_POINT ( 'NONE',  ( 9.167947166070463894, -34.93839632546465168, 1.589105844653403210 ) ) ;
#648 = ADVANCED_FACE ( 'NONE', ( #670 ), #888, .T. ) ;
#649 = CARTESIAN_POINT ( 'NONE',  ( -1.598281786710777697, -36.15973575610402690, 0.7500092513909947245 ) ) ;
#650 = VERTEX_POINT ( 'NONE', #228 ) ;
#651 = DIRECTION ( 'NONE',  ( 0.000000000000000000, -0.000000000000000000, 1.000000000000000000 ) ) ;
#652 = DIRECTION ( 'NONE',  ( 0.000000000000000000, 0.000000000000000000, -1.000000000000000000 ) ) ;
#653 = LINE ( 'NONE', #106, #543 ) ;
#654 = ORIENTED_EDGE ( 'NONE', *, *, #685, .F. ) ;
#655 = CYLINDRICAL_SURFACE ( 'NONE', #47, 4.249999999999999112 ) ;
#656 = LINE ( 'NONE', #454, #113 ) ;
#657 = CARTESIAN_POINT ( 'NONE',  ( 9.957191644370467998, -36.15973575610402690, 9.251390994748793429E-06 ) ) ;
#658 = ORIENTED_EDGE ( 'NONE', *, *, #928, .F. ) ;
#659 = CIRCLE ( 'NONE', #436, 4.249999999999995559 ) ;
#660 = ADVANCED_FACE ( 'NONE', ( #379, #99 ), #460, .T. ) ;
#661 = DIRECTION ( 'NONE',  ( 0.000000000000000000, 0.000000000000000000, 1.000000000000000000 ) ) ;
#662 = DIRECTION ( 'NONE',  ( -0.000000000000000000, 1.000000000000000000, -0.000000000000000000 ) ) ;
#663 = DIRECTION ( 'NONE',  ( -0.000000000000000000, -1.000000000000000000, -0.000000000000000000 ) ) ;
#664 = EDGE_LOOP ( 'NONE', ( #732, #283 ) ) ;
#665 = EDGE_CURVE ( 'NONE', #435, #874, #653, .T. ) ;
#666 = DIRECTION ( 'NONE',  ( 1.000000000000000000, 0.000000000000000000, 0.000000000000000000 ) ) ;
#667 = DIRECTION ( 'NONE',  ( 0.000000000000000000, 0.000000000000000000, 1.000000000000000000 ) ) ;
#668 = ORIENTED_EDGE ( 'NONE', *, *, #50, .F. ) ;
#669 =( GEOMETRIC_REPRESENTATION_CONTEXT ( 3 ) GLOBAL_UNCERTAINTY_ASSIGNED_CONTEXT ( ( #858 ) ) GLOBAL_UNIT_ASSIGNED_CONTEXT ( ( #815, #18, #452 ) ) REPRESENTATION_CONTEXT ( 'NONE', 'WORKASPACE' ) );
#670 = FACE_OUTER_BOUND ( 'NONE', #691, .T. ) ;
#671 = ORIENTED_EDGE ( 'NONE', *, *, #665, .F. ) ;
#672 = DIRECTION ( 'NONE',  ( -0.000000000000000000, -1.000000000000000000, -0.000000000000000000 ) ) ;
#673 = ADVANCED_FACE ( 'NONE', ( #305 ), #164, .T. ) ;
#674 = ADVANCED_FACE ( 'NONE', ( #581 ), #97, .F. ) ;
#675 = FACE_OUTER_BOUND ( 'NONE', #480, .T. ) ;
#676 = ORIENTED_EDGE ( 'NONE', *, *, #814, .F. ) ;
#677 = CARTESIAN_POINT ( 'NONE',  ( 3.901968213289225496, -32.15973575610402690, 9.251390994748793429E-06 ) ) ;
#678 = CARTESIAN_POINT ( 'NONE',  ( 9.122308651706180882, -37.16623196739190149, 1.733154474458681760 ) ) ;
#679 = ORIENTED_EDGE ( 'NONE', *, *, #542, .F. ) ;
#680 = CARTESIAN_POINT ( 'NONE',  ( 36.90196821328922994, -36.15973575610402690, 9.251390994748793429E-06 ) ) ;
#681 = CARTESIAN_POINT ( 'NONE',  ( 9.030608864340438302, -36.42368369093737357, 1.986921712697616194 ) ) ;
#682 = ORIENTED_EDGE ( 'NONE', *, *, #445, .F. ) ;
#683 = AXIS2_PLACEMENT_3D ( 'NONE', #895, #157, #251 ) ;
#684 = CARTESIAN_POINT ( 'NONE',  ( 9.957191644370467998, -36.15973575610402690, -0.7499907496674275142 ) ) ;
#685 = EDGE_CURVE ( 'NONE', #711, #447, #616, .T. ) ;
#686 = CARTESIAN_POINT ( 'NONE',  ( 9.025443596269022706, -36.29309686957886072, -1.999990748609004720 ) ) ;
#687 = CIRCLE ( 'NONE', #62, 4.312499999999999112 ) ;
#688 = DIRECTION ( 'NONE',  ( 1.000000000000000000, 0.000000000000000000, 0.000000000000000000 ) ) ;
#689 = CARTESIAN_POINT ( 'NONE',  ( 8.151948062619736035, -35.40984994324987412, -0.1962264655168325655 ) ) ;
#690 = DIRECTION ( 'NONE',  ( 1.000000000000000000, 0.000000000000000000, 0.000000000000000000 ) ) ;
#691 = EDGE_LOOP ( 'NONE', ( #595, #221, #760, #561 ) ) ;
#692 = EDGE_CURVE ( 'NONE', #2, #229, #478, .T. ) ;
#693 = CARTESIAN_POINT ( 'NONE',  ( 3.901968213289225496, -55.65973575610402690, 9.251390994748793429E-06 ) ) ;
#694 = CARTESIAN_POINT ( 'NONE',  ( 3.901968213289225496, -32.15973575610402690, 9.251390994748793429E-06 ) ) ;
#695 = ORIENTED_EDGE ( 'NONE', *, *, #168, .F. ) ;
#696 = DIRECTION ( 'NONE',  ( 0.000000000000000000, 0.000000000000000000, 1.000000000000000000 ) ) ;
#697 = AXIS2_PLACEMENT_3D ( 'NONE', #731, #222, #446 ) ;
#698 = EDGE_CURVE ( 'NONE', #831, #397, #854, .T. ) ;
#699 =( NAMED_UNIT ( * ) PLANE_ANGLE_UNIT ( ) SI_UNIT ( $, .RADIAN. ) );
#700 = DIRECTION ( 'NONE',  ( 0.000000000000000000, 0.000000000000000000, -1.000000000000000000 ) ) ;
#701 = ORIENTED_EDGE ( 'NONE', *, *, #550, .F. ) ;
#702 = CARTESIAN_POINT ( 'NONE',  ( 11.90196821328922461, -36.15973575610402690, 3.062509251390994169 ) ) ;
#703 = CIRCLE ( 'NONE', #487, 4.249999999999996447 ) ;
#704 = DIRECTION ( 'NONE',  ( 0.000000000000000000, 0.000000000000000000, 1.000000000000000000 ) ) ;
#705 = LINE ( 'NONE', #740, #59 ) ;
#706 = ORIENTED_EDGE ( 'NONE', *, *, #730, .F. ) ;
#707 = B_SPLINE_CURVE_WITH_KNOTS ( 'NONE', 3,
 ( #734, #309, #162, #785, #592, #95, #572, #805, #801, #84, #147, #216, #877, #8, #588, #294, #505, #584, #432, #231, #449, #729, #713, #77, #647, #882, #91, #360, #936, #154, #236, #438 ),
 .UNSPECIFIED., .F., .F.,
 ( 4, 2, 2, 2, 2, 2, 2, 2, 2, 2, 2, 2, 2, 2, 2, 4 ),
 ( 0.000000000000000000, 0.0003942025478947191412, 0.0007884050957894382823, 0.001182607643684157423, 0.001576810191578876565, 0.002365215287368300102, 0.002759417835263008184, 0.003153620383157716266, 0.003547822931052424782, 0.003942025478947131997, 0.004336228026841840513, 0.004730430574736549029, 0.005124633122631256678, 0.005518835670525964326, 0.005913038218420672842, 0.006307240766315380491 ),
 .UNSPECIFIED. ) ;
#708 = CARTESIAN_POINT ( 'NONE',  ( -1.598031786710774060, -55.65973575610402690, -5.499990748609006275 ) ) ;
#709 = CARTESIAN_POINT ( 'NONE',  ( 3.901968213289225940, -32.15973575610402690, -4.249990748609001834 ) ) ;
#710 = FACE_OUTER_BOUND ( 'NONE', #743, .T. ) ;
#711 = VERTEX_POINT ( 'NONE', #169 ) ;
#712 = ADVANCED_FACE ( 'NONE', ( #456 ), #314, .F. ) ;
#713 = CARTESIAN_POINT ( 'NONE',  ( 9.241175384922099667, -34.65474990521300214, 1.323596479457354258 ) ) ;
#714 = APPLICATION_CONTEXT ( 'automotive_design' ) ;
#715 = DIRECTION ( 'NONE',  ( 0.000000000000000000, 0.000000000000000000, -1.000000000000000000 ) ) ;
#716 = AXIS2_PLACEMENT_3D ( 'NONE', #382, #866, #666 ) ;
#717 = ORIENTED_EDGE ( 'NONE', *, *, #168, .T. ) ;
#718 = FACE_OUTER_BOUND ( 'NONE', #160, .T. ) ;
#719 = CARTESIAN_POINT ( 'NONE',  ( 3.901968213289225496, -32.15973575610402690, 4.250009251390993725 ) ) ;
#720 = CIRCLE ( 'NONE', #323, 23.75000000000000711 ) ;
#721 = CARTESIAN_POINT ( 'NONE',  ( 8.101335154047012210, -36.53768604370805662, -0.6551757453056330505 ) ) ;
#722 = ORIENTED_EDGE ( 'NONE', *, *, #563, .F. ) ;
#723 = CARTESIAN_POINT ( 'NONE',  ( 3.901968213289225496, -55.65973575610402690, 9.251390994748793429E-06 ) ) ;
#724 = CARTESIAN_POINT ( 'NONE',  ( 9.957243084196949923, -36.15973575610402690, 9.251390994748793429E-06 ) ) ;
#725 = EDGE_CURVE ( 'NONE', #363, #531, #404, .T. ) ;
#726 = CARTESIAN_POINT ( 'NONE',  ( 13.35024654055369808, -36.15973575610402690, 3.062509251390999054 ) ) ;
#727 = EDGE_LOOP ( 'NONE', ( #111, #521, #214, #125 ) ) ;
#728 = PRESENTATION_STYLE_ASSIGNMENT (( #532 ) ) ;
#729 = CARTESIAN_POINT ( 'NONE',  ( 9.265666434482922043, -34.57102980052729890, 1.221832825306142789 ) ) ;
#730 = EDGE_CURVE ( 'NONE', #42, #545, #242, .T. ) ;
#731 = CARTESIAN_POINT ( 'NONE',  ( 3.901968213289225496, -32.15973575610402690, 9.251390994748793429E-06 ) ) ;
#732 = ORIENTED_EDGE ( 'NONE', *, *, #855, .T. ) ;
#733 = CARTESIAN_POINT ( 'NONE',  ( 3.901968213289225496, -32.15973575610402690, 9.251390994748793429E-06 ) ) ;
#734 = CARTESIAN_POINT ( 'NONE',  ( 9.025443596269024482, -36.15973575610402690, -1.999990748609005164 ) ) ;
#735 = CIRCLE ( 'NONE', #546, 2.000000000000000000 ) ;
#736 =( NAMED_UNIT ( * ) SI_UNIT ( $, .STERADIAN. ) SOLID_ANGLE_UNIT ( ) );
#737 = CARTESIAN_POINT ( 'NONE',  ( 3.901968213289225496, -32.15973575610402690, 9.251390994748793429E-06 ) ) ;
#738 = ORIENTED_EDGE ( 'NONE', *, *, #730, .T. ) ;
#739 = CARTESIAN_POINT ( 'NONE',  ( -1.598031786710771396, -32.15973575610402690, 9.251390994075237912E-06 ) ) ;
#740 = CARTESIAN_POINT ( 'NONE',  ( -1.598281786710777697, -36.15973575610402690, -0.7499907486090052755 ) ) ;
#741 = ORIENTED_EDGE ( 'NONE', *, *, #171, .T. ) ;
#742 = CARTESIAN_POINT ( 'NONE',  ( 9.397100347111461360, -38.14645629822851447, 0.2648818545716634665 ) ) ;
#743 = EDGE_LOOP ( 'NONE', ( #609, #846, #463, #706 ) ) ;
#744 = DIRECTION ( 'NONE',  ( 0.000000000000000000, 0.000000000000000000, -1.000000000000000000 ) ) ;
#745 = VECTOR ( 'NONE', #560, 1000.000000000000000 ) ;
#746 = CIRCLE ( 'NONE', #10, 4.249999999999999112 ) ;
#747 = CIRCLE ( 'NONE', #346, 4.249999999999995559 ) ;
#748 = FACE_OUTER_BOUND ( 'NONE', #65, .T. ) ;
#749 = ORIENTED_EDGE ( 'NONE', *, *, #568, .T. ) ;
#750 = CYLINDRICAL_SURFACE ( 'NONE', #806, 5.500000000000000000 ) ;
#751 = ADVANCED_FACE ( 'NONE', ( #748 ), #608, .T. ) ;
#752 = DIRECTION ( 'NONE',  ( 0.000000000000000000, 0.000000000000000000, -1.000000000000000000 ) ) ;
#753 = ORIENTED_EDGE ( 'NONE', *, *, #768, .F. ) ;
#754 = CARTESIAN_POINT ( 'NONE',  ( 9.957243084196949923, -36.15973575610402690, 2.000009251390995058 ) ) ;
#755 = DIRECTION ( 'NONE',  ( -0.000000000000000000, 1.000000000000000000, -0.000000000000000000 ) ) ;
#756 = EDGE_LOOP ( 'NONE', ( #195, #419, #474, #788 ) ) ;
#757 = EDGE_CURVE ( 'NONE', #498, #553, #601, .T. ) ;
#758 = VECTOR ( 'NONE', #267, 1000.000000000000114 ) ;
#759 = CARTESIAN_POINT ( 'NONE',  ( 11.98208993714341553, -36.15973575610402690, 9.251390994748793429E-06 ) ) ;
#760 = ORIENTED_EDGE ( 'NONE', *, *, #444, .F. ) ;
#761 = CIRCLE ( 'NONE', #319, 3.890306122448979220 ) ;
#762 = CARTESIAN_POINT ( 'NONE',  ( 3.901968213289225496, -55.65973575610402690, 9.251390994748793429E-06 ) ) ;
#763 = FACE_OUTER_BOUND ( 'NONE', #756, .T. ) ;
#764 = ORIENTED_EDGE ( 'NONE', *, *, #829, .F. ) ;
#765 = CARTESIAN_POINT ( 'NONE',  ( 12.20651279587210958, -36.15973575610402690, 3.890315373839964508 ) ) ;
#766 = CARTESIAN_POINT ( 'NONE',  ( -1.598281786710777697, -36.15973575610402690, 2.000009251390995058 ) ) ;
#767 = ORIENTED_EDGE ( 'NONE', *, *, #725, .F. ) ;
#768 = EDGE_CURVE ( 'NONE', #388, #199, #273, .T. ) ;
#769 = LINE ( 'NONE', #61, #483 ) ;
#770 = CARTESIAN_POINT ( 'NONE',  ( 3.901968213289225940, -27.90973575610403046, 9.251390994748793429E-06 ) ) ;
#771 = ORIENTED_EDGE ( 'NONE', *, *, #537, .T. ) ;
#772 = CARTESIAN_POINT ( 'NONE',  ( 9.957243084196949923, -36.15973575610402690, -1.999990748609005164 ) ) ;
#773 = CIRCLE ( 'NONE', #416, 3.062499999999999112 ) ;
#774 = CARTESIAN_POINT ( 'NONE',  ( 8.101402704399379928, -35.78090730806163577, 0.6547774403418135103 ) ) ;
#775 = CLOSED_SHELL ( 'NONE', ( #512, #137, #899, #887, #712, #320, #237, #802, #429, #86, #673, #648, #335, #191, #180, #751, #354, #903, #485, #660, #133, #911, #826, #401, #204, #674, #217, #365, #371, #153 ) ) ;
#776 = CARTESIAN_POINT ( 'NONE',  ( 3.901968213289225496, -32.15973575610402690, 9.251390994748793429E-06 ) ) ;
#777 = ORIENTED_EDGE ( 'NONE', *, *, #814, .T. ) ;
#778 = CIRCLE ( 'NONE', #289, 3.890306122448979220 ) ;
#779 = DIRECTION ( 'NONE',  ( 1.000000000000000000, 0.000000000000000000, 0.000000000000000000 ) ) ;
#780 = CARTESIAN_POINT ( 'NONE',  ( 3.901968213289225496, -32.15973575610402690, 9.251390994748793429E-06 ) ) ;
#781 = EDGE_CURVE ( 'NONE', #874, #711, #12, .T. ) ;
#782 = CARTESIAN_POINT ( 'NONE',  ( 9.957217364282003658, -36.15973575610402690, 0.7500092513909947245 ) ) ;
#783 = VERTEX_POINT ( 'NONE', #551 ) ;
#784 = CARTESIAN_POINT ( 'NONE',  ( 11.90196821328922461, -36.15973575610402690, -3.062490748609004498 ) ) ;
#785 = CARTESIAN_POINT ( 'NONE',  ( 9.050315232198130388, -35.63828425185914739, -1.935264146913734162 ) ) ;
#786 = DIRECTION ( 'NONE',  ( 0.000000000000000000, 0.000000000000000000, 1.000000000000000000 ) ) ;
#787 = CARTESIAN_POINT ( 'NONE',  ( 16.90196821328922638, -36.15973575610402690, 9.251390994748793429E-06 ) ) ;
#788 = ORIENTED_EDGE ( 'NONE', *, *, #636, .F. ) ;
#789 = FACE_OUTER_BOUND ( 'NONE', #341, .T. ) ;
#790 = EDGE_LOOP ( 'NONE', ( #864, #646 ) ) ;
#791 = TOROIDAL_SURFACE ( 'NONE', #391, 3.812499999999999556, 0.5000000000000000000 ) ;
#792 = CARTESIAN_POINT ( 'NONE',  ( 8.136263593586646081, -36.82931870968250365, 0.3910851729893903284 ) ) ;
#793 = CIRCLE ( 'NONE', #406, 1.999916673783314724 ) ;
#794 = ORIENTED_EDGE ( 'NONE', *, *, #467, .F. ) ;
#795 = DIRECTION ( 'NONE',  ( 0.000000000000000000, 0.000000000000000000, -1.000000000000000000 ) ) ;
#796 = ORIENTED_EDGE ( 'NONE', *, *, #115, .F. ) ;
#797 = EDGE_CURVE ( 'NONE', #249, #613, #838, .T. ) ;
#798 = CARTESIAN_POINT ( 'NONE',  ( 8.109993911454120408, -36.62044311163989363, 0.5999627159191885939 ) ) ;
#799 = VERTEX_POINT ( 'NONE', #188 ) ;
#800 = CARTESIAN_POINT ( 'NONE',  ( 13.16380910364600076, -36.15973575610402690, 9.251390994748793429E-06 ) ) ;
#801 = CARTESIAN_POINT ( 'NONE',  ( 9.192772905450897980, -34.83671845417514135, -1.505425444914792132 ) ) ;
#802 = ADVANCED_FACE ( 'NONE', ( #675 ), #33, .F. ) ;
#803 = CARTESIAN_POINT ( 'NONE',  ( 16.90196821328922638, -36.15973575610402690, 9.251390994748793429E-06 ) ) ;
#804 = ORIENTED_EDGE ( 'NONE', *, *, #580, .F. ) ;
#805 = CARTESIAN_POINT ( 'NONE',  ( 9.167984611917056270, -34.93821260140896356, -1.588971733924262386 ) ) ;
#806 = AXIS2_PLACEMENT_3D ( 'NONE', #677, #552, #898 ) ;
#807 = DIRECTION ( 'NONE',  ( 0.000000000000000000, 1.000000000000000000, -1.224646799147353207E-16 ) ) ;
#808 = ORIENTED_EDGE ( 'NONE', *, *, #260, .F. ) ;
#809 = AXIS2_PLACEMENT_3D ( 'NONE', #462, #534, #469 ) ;
#810 = CARTESIAN_POINT ( 'NONE',  ( 12.70042190422045181, -36.15973575610402690, 9.251390994748793429E-06 ) ) ;
#811 = AXIS2_PLACEMENT_3D ( 'NONE', #225, #918, #795 ) ;
#812 = DIRECTION ( 'NONE',  ( -0.000000000000000000, 1.000000000000000000, -0.000000000000000000 ) ) ;
#813 = ORIENTED_EDGE ( 'NONE', *, *, #260, .T. ) ;
#814 = EDGE_CURVE ( 'NONE', #132, #355, #793, .T. ) ;
#815 =( LENGTH_UNIT ( ) NAMED_UNIT ( * ) SI_UNIT ( .MILLI., .METRE. ) );
#816 = DIRECTION ( 'NONE',  ( 0.000000000000000000, 0.000000000000000000, 1.000000000000000000 ) ) ;
#817 = EDGE_LOOP ( 'NONE', ( #777, #906, #223, #897 ) ) ;
#818 = CARTESIAN_POINT ( 'NONE',  ( 3.901968213289225496, -32.15973575610402690, 9.251390994748793429E-06 ) ) ;
#819 = DIRECTION ( 'NONE',  ( 0.000000000000000000, 0.000000000000000000, 1.000000000000000000 ) ) ;
#820 = AXIS2_PLACEMENT_3D ( 'NONE', #818, #407, #688 ) ;
#821 = CARTESIAN_POINT ( 'NONE',  ( 9.050237782734660286, -36.68033321061759011, -1.935468558496127089 ) ) ;
#822 = ORIENTED_EDGE ( 'NONE', *, *, #250, .F. ) ;
#823 = DIRECTION ( 'NONE',  ( 0.000000000000000000, 1.000000000000000000, -0.000000000000000000 ) ) ;
#824 = CIRCLE ( 'NONE', #198, 3.812499999999999556 ) ;
#825 = DIRECTION ( 'NONE',  ( 0.000000000000000000, 0.000000000000000000, 1.000000000000000000 ) ) ;
#826 = ADVANCED_FACE ( 'NONE', ( #209, #488 ), #148, .F. ) ;
#827 = CARTESIAN_POINT ( 'NONE',  ( 9.100777206244240247, -37.04966615571620991, -1.795889975511070880 ) ) ;
#828 = ORIENTED_EDGE ( 'NONE', *, *, #493, .T. ) ;
#829 = EDGE_CURVE ( 'NONE', #783, #268, #28, .T. ) ;
#830 = CARTESIAN_POINT ( 'NONE',  ( 9.401950202530100498, -38.15968622651340780, -0.1325293773862745161 ) ) ;
#831 = VERTEX_POINT ( 'NONE', #765 ) ;
#832 = EDGE_LOOP ( 'NONE', ( #292, #566, #901, #477, #145 ) ) ;
#833 = CARTESIAN_POINT ( 'NONE',  ( 3.901968213289225496, -32.15973575610402690, 9.251390994748793429E-06 ) ) ;
#834 = CIRCLE ( 'NONE', #241, 3.812499999999999556 ) ;
#835 = CARTESIAN_POINT ( 'NONE',  ( 3.901968213289225940, -55.65973575610402690, -4.249990748609005387 ) ) ;
#836 = ORIENTED_EDGE ( 'NONE', *, *, #5, .F. ) ;
#837 = VECTOR ( 'NONE', #362, 1000.000000000000000 ) ;
#838 = CIRCLE ( 'NONE', #439, 5.500000000000000000 ) ;
#839 =( LENGTH_UNIT ( ) NAMED_UNIT ( * ) SI_UNIT ( .MILLI., .METRE. ) );
#840 = CIRCLE ( 'NONE', #126, 4.312499999999999112 ) ;
#841 = CARTESIAN_POINT ( 'NONE',  ( 9.957243084196949923, -36.15973575610402690, 9.251390994748793429E-06 ) ) ;
#842 = EDGE_CURVE ( 'NONE', #799, #435, #746, .T. ) ;
#843 = EDGE_LOOP ( 'NONE', ( #17, #332, #571, #511 ) ) ;
#844 = DIRECTION ( 'NONE',  ( 0.000000000000000000, 0.000000000000000000, -1.000000000000000000 ) ) ;
#845 = CARTESIAN_POINT ( 'NONE',  ( 9.957243084196949923, -36.15973575610402690, 9.251390994748793429E-06 ) ) ;
#846 = ORIENTED_EDGE ( 'NONE', *, *, #698, .T. ) ;
#847 = DIRECTION ( 'NONE',  ( -0.9999999991532620980, 5.039649508001125200E-21, -4.115186118568983035E-05 ) ) ;
#848 = FACE_OUTER_BOUND ( 'NONE', #558, .T. ) ;
#849 = DIRECTION ( 'NONE',  ( 0.000000000000000000, 0.000000000000000000, 1.000000000000000000 ) ) ;
#850 = ORIENTED_EDGE ( 'NONE', *, *, #725, .T. ) ;
#851 = AXIS2_PLACEMENT_3D ( 'NONE', #723, #94, #661 ) ;
#852 = DIRECTION ( 'NONE',  ( 1.000000000000000000, 0.000000000000000000, 0.000000000000000000 ) ) ;
#853 = VECTOR ( 'NONE', #69, 1000.000000000000114 ) ;
#854 = CIRCLE ( 'NONE', #455, 0.4999999999999995559 ) ;
#855 = EDGE_CURVE ( 'NONE', #229, #2, #643, .T. ) ;
#856 = PRODUCT_DEFINITION_FORMATION_WITH_SPECIFIED_SOURCE ( 'ä»', '', #931, .NOT_KNOWN. ) ;
#857 = DIRECTION ( 'NONE',  ( 0.000000000000000000, -1.000000000000000000, -0.000000000000000000 ) ) ;
#858 = UNCERTAINTY_MEASURE_WITH_UNIT (LENGTH_MEASURE( 1.000000000000000082E-05 ), #815, 'distance_accuracy_value', 'NONE');
#859 = CARTESIAN_POINT ( 'NONE',  ( 9.401968213289222831, -32.15973575610402690, 9.251390994748793429E-06 ) ) ;
#860 = EDGE_LOOP ( 'NONE', ( #71, #170, #203, #441 ) ) ;
#861 = FACE_BOUND ( 'NONE', #790, .T. ) ;
#862 = DIRECTION ( 'NONE',  ( 1.000000000000000000, 0.000000000000000000, 0.000000000000000000 ) ) ;
#863 = DIRECTION ( 'NONE',  ( -1.000000000000000000, -0.000000000000000000, -0.000000000000000000 ) ) ;
#864 = ORIENTED_EDGE ( 'NONE', *, *, #842, .F. ) ;
#865 = ORIENTED_EDGE ( 'NONE', *, *, #698, .F. ) ;
#866 = DIRECTION ( 'NONE',  ( 0.000000000000000000, 0.000000000000000000, 1.000000000000000000 ) ) ;
#867 = DIRECTION ( 'NONE',  ( 1.224646799147353207E-16, 0.000000000000000000, -1.000000000000000000 ) ) ;
#868 = EDGE_LOOP ( 'NONE', ( #671, #380, #640, #749, #189 ) ) ;
#869 = CARTESIAN_POINT ( 'NONE',  ( 9.957217364282003658, -36.15973575610402690, 9.251390994748793429E-06 ) ) ;
#870 = CARTESIAN_POINT ( 'NONE',  ( 8.085268345959603309, -36.15973575610402690, 0.7500092513909947245 ) ) ;
#871 = AXIS2_PLACEMENT_3D ( 'NONE', #389, #374, #448 ) ;
#872 = VECTOR ( 'NONE', #496, 1000.000000000000000 ) ;
#873 = CARTESIAN_POINT ( 'NONE',  ( 8.088915570678995692, -36.35643340914773347, 0.7303653420249440753 ) ) ;
#874 = VERTEX_POINT ( 'NONE', #709 ) ;
#875 = DIRECTION ( 'NONE',  ( 0.000000000000000000, 0.000000000000000000, 1.000000000000000000 ) ) ;
#876 = EDGE_CURVE ( 'NONE', #249, #363, #342, .T. ) ;
#877 = CARTESIAN_POINT ( 'NONE',  ( 9.378664840170294781, -34.22458933936434988, -0.5221238305987893069 ) ) ;
#878 = VECTOR ( 'NONE', #662, 1000.000000000000000 ) ;
#879 = DIRECTION ( 'NONE',  ( 0.000000000000000000, 0.000000000000000000, 1.000000000000000000 ) ) ;
#880 = ORIENTED_EDGE ( 'NONE', *, *, #855, .F. ) ;
#881 = FACE_OUTER_BOUND ( 'NONE', #832, .T. ) ;
#882 = CARTESIAN_POINT ( 'NONE',  ( 9.122084882431785502, -35.15437327761203079, 1.733832850951551485 ) ) ;
#883 = CARTESIAN_POINT ( 'NONE',  ( 8.085268345959603309, -36.25766108749825634, 0.7500092513909949465 ) ) ;
#884 = ORIENTED_EDGE ( 'NONE', *, *, #797, .T. ) ;
#885 = DIRECTION ( 'NONE',  ( 0.000000000000000000, 0.000000000000000000, -1.000000000000000000 ) ) ;
#886 = APPLICATION_PROTOCOL_DEFINITION ( 'draft international standard', 'automotive_design', 1998, #714 ) ;
#887 = ADVANCED_FACE ( 'NONE', ( #625 ), #617, .F. ) ;
#888 = SPHERICAL_SURFACE ( 'NONE', #418, 5.499999999999996447 ) ;
#889 = EDGE_LOOP ( 'NONE', ( #451, #156, #26, #576 ) ) ;
#890 = AXIS2_PLACEMENT_3D ( 'NONE', #629, #138, #569 ) ;
#891 = CARTESIAN_POINT ( 'NONE',  ( 11.90196821328922461, -36.15973575610402690, 9.251390994748793429E-06 ) ) ;
#892 = PRESENTATION_LAYER_ASSIGNMENT (  '', '', ( #66 ) ) ;
#893 = CARTESIAN_POINT ( 'NONE',  ( 9.378619563556597427, -38.09475494243734772, -0.5226743611532336242 ) ) ;
#894 = ORIENTED_EDGE ( 'NONE', *, *, #499, .T. ) ;
#895 = CARTESIAN_POINT ( 'NONE',  ( 13.35024654055369808, -36.15973575610402690, 9.251390994748793429E-06 ) ) ;
#896 = DIRECTION ( 'NONE',  ( 1.000000000000000000, 0.000000000000000000, 0.000000000000000000 ) ) ;
#897 = ORIENTED_EDGE ( 'NONE', *, *, #493, .F. ) ;
#898 = DIRECTION ( 'NONE',  ( 0.000000000000000000, 0.000000000000000000, 1.000000000000000000 ) ) ;
#899 = ADVANCED_FACE ( 'NONE', ( #68 ), #490, .F. ) ;
#900 = CARTESIAN_POINT ( 'NONE',  ( 9.025443596269020929, -36.29104987539988514, 2.000009251390995502 ) ) ;
#901 = ORIENTED_EDGE ( 'NONE', *, *, #781, .T. ) ;
#902 = FACE_OUTER_BOUND ( 'NONE', #924, .T. ) ;
#903 = ADVANCED_FACE ( 'NONE', ( #848 ), #74, .T. ) ;
#904 = CIRCLE ( 'NONE', #45, 0.7500000000000000000 ) ;
#905 = CARTESIAN_POINT ( 'NONE',  ( 9.167571023725328061, -37.37943334009662522, -1.590319110914029110 ) ) ;
#906 = ORIENTED_EDGE ( 'NONE', *, *, #181, .T. ) ;
#907 = DIRECTION ( 'NONE',  ( 1.000000000000000000, 0.000000000000000000, 0.000000000000000000 ) ) ;
#908 = CARTESIAN_POINT ( 'NONE',  ( 9.241231808457861518, -37.66491167871911472, -1.323340684234257214 ) ) ;
#909 = DIRECTION ( 'NONE',  ( 1.000000000000000000, 0.000000000000000000, 0.000000000000000000 ) ) ;
#910 = ORIENTED_EDGE ( 'NONE', *, *, #232, .T. ) ;
#911 = ADVANCED_FACE ( 'NONE', ( #205 ), #556, .F. ) ;
#912 = CARTESIAN_POINT ( 'NONE',  ( 8.127572053425152987, -35.55931231912600765, 0.4601409460094973980 ) ) ;
#913 = CARTESIAN_POINT ( 'NONE',  ( 16.90196821328922638, -36.15973575610402690, 9.251390994748793429E-06 ) ) ;
#914 = ORIENTED_EDGE ( 'NONE', *, *, #631, .T. ) ;
#915 = CIRCLE ( 'NONE', #285, 5.499999999999996447 ) ;
#916 = DIRECTION ( 'NONE',  ( -1.000000000000000000, -0.000000000000000000, -0.000000000000000000 ) ) ;
#917 = ORIENTED_EDGE ( 'NONE', *, *, #580, .T. ) ;
#918 = DIRECTION ( 'NONE',  ( 1.000000000000000000, 0.000000000000000000, 0.000000000000000000 ) ) ;
#919 = DIRECTION ( 'NONE',  ( -0.000000000000000000, 1.000000000000000000, -0.000000000000000000 ) ) ;
#920 = DIRECTION ( 'NONE',  ( -1.000000000000000000, -0.000000000000000000, -0.000000000000000000 ) ) ;
#921 = CARTESIAN_POINT ( 'NONE',  ( 11.98208993714341553, -36.15973575610402690, 1.999925925174309560 ) ) ;
#922 = DIRECTION ( 'NONE',  ( 0.000000000000000000, 0.000000000000000000, 1.000000000000000000 ) ) ;
#923 = CARTESIAN_POINT ( 'NONE',  ( 9.025443596269024482, -36.15973575610402690, -1.999990748609005164 ) ) ;
#924 = EDGE_LOOP ( 'NONE', ( #654, #211, #679, #344 ) ) ;
#925 = AXIS2_PLACEMENT_3D ( 'NONE', #759, #128, #190 ) ;
#926 = DIRECTION ( 'NONE',  ( 1.000000000000000000, 0.000000000000000000, 0.000000000000000000 ) ) ;
#927 = ORIENTED_EDGE ( 'NONE', *, *, #232, .F. ) ;
#928 = EDGE_CURVE ( 'NONE', #650, #492, #769, .T. ) ;
#929 = CIRCLE ( 'NONE', #183, 4.312499999999999112 ) ;
#930 = DIRECTION ( 'NONE',  ( 0.000000000000000000, 0.000000000000000000, -1.000000000000000000 ) ) ;
#931 = PRODUCT ( '\X2\5b895353624b81c2\X0\', '\X2\5b895353624b81c2\X0\', '', ( #370 ) ) ;
#932 = AXIS2_PLACEMENT_3D ( 'NONE', #708, #504, #651 ) ;
#933 = LINE ( 'NONE', #575, #27 ) ;
#934 = ORIENTED_EDGE ( 'NONE', *, *, #568, .F. ) ;
#935 = DIRECTION ( 'NONE',  ( -1.000000000000000000, -0.000000000000000000, -0.000000000000000000 ) ) ;
#936 = CARTESIAN_POINT ( 'NONE',  ( 9.050472472896263554, -35.63644583323618775, 1.934868603076528748 ) ) ;
#937 = CIRCLE ( 'NONE', #533, 4.249999999999999112 ) ;
ENDSEC;
END-ISO-10303-21;
